<svg xmlns="http://www.w3.org/2000/svg" viewBox="0 0 35 35"><title>logo</title><path d="M17.52,35A17.5,17.5,0,1,0,0,17.5,17.51,17.51,0,0,0,17.52,35Z" fill="#353535"/><path d="M4.38,17.4l2.94-2.91,2.92,2.91Z" fill="#fff"/><path d="M8.08,13.84l3.63,3.56h4.38l-5.84-5.83Z" fill="#fff"/><path d="M13.93,13.84l3.64,3.56h4.37L16.1,11.57Z" fill="#fff"/><path d="M30.07,18.38,27.13,21.3l-2.92-2.92Z" fill="#fff"/><path d="M26.37,22l-3.63-3.57H18.36l5.85,5.84Z" fill="#fff"/><path d="M20.52,22l-3.63-3.57H12.51l5.85,5.84Z" fill="#fff"/><path d="M48.57,21.33v-4.1l-2,3.34h-1l-2-3.23v4h-2V13.59h1.8l2.72,4.47,2.66-4.47h1.8v7.74Z" fill="#353535"/><path d="M54.07,21a4,4,0,0,1,0-7,5,5,0,0,1,4.41,0,4,4,0,0,1,0,7A5,5,0,0,1,54.07,21Zm3.27-1.57a2.11,2.11,0,0,0,.76-.78,2.61,2.61,0,0,0,.28-1.16,2.57,2.57,0,0,0-.28-1.15,1.88,1.88,0,0,0-.75-.78,2.18,2.18,0,0,0-2.13,0,2,2,0,0,0-.75.78,2.57,2.57,0,0,0-.28,1.15,2.61,2.61,0,0,0,.28,1.16,2.16,2.16,0,0,0,.75.78,2.24,2.24,0,0,0,2.13,0Z" fill="#353535"/><path d="M63.49,15.33H61.11V13.59h6.94v1.74H65.68v6H63.49Z" fill="#353535"/><path d="M69.09,13.59h2.19v7.74H69.09Z" fill="#353535"/><path d="M74.76,21a4,4,0,0,1-1.55-5.56A4,4,0,0,1,74.76,14a5,5,0,0,1,4.42,0,4,4,0,0,1,0,7A5,5,0,0,1,74.76,21ZM78,19.4a2,2,0,0,0,.75-.78A2.48,2.48,0,0,0,79,17.46a2.41,2.41,0,0,0-.28-1.15,1.88,1.88,0,0,0-.75-.78,2.16,2.16,0,0,0-2.12,0,2,2,0,0,0-.76.78,2.56,2.56,0,0,0-.27,1.15,2.6,2.6,0,0,0,.27,1.16,2.11,2.11,0,0,0,.76.78A2.22,2.22,0,0,0,78,19.4Z" fill="#353535"/><path d="M90,13.59v7.74H88.23l-3.44-4.12v4.12H82.64V13.59h1.81l3.42,4.12V13.59Z" fill="#353535"/><path d="M103.91,13.59l-2.52,7.74H99.05l-1.49-4.71L96,21.33H93.68l-2.51-7.74h2.26L95,18.53l1.64-4.94h2l1.56,5,1.63-5Z" fill="#353535"/><path d="M109.85,19.83h-3.28l-.61,1.5h-2.24l3.42-7.74h2.15l3.43,7.74h-2.28Zm-.64-1.62-1-2.47-1,2.47Z" fill="#353535"/><path d="M117,19.27h-1.19v2.06h-2.19V13.59h3.54a4.59,4.59,0,0,1,1.83.35,3,3,0,0,1,.94.7,2.9,2.9,0,0,1,.56,1,2.74,2.74,0,0,1,.11,1.17,2.89,2.89,0,0,1-.38,1.1,2.64,2.64,0,0,1-1.12,1l1.67,2.43h-2.35Zm1-3.66a1.45,1.45,0,0,0-1-.3h-1.23v2.26H117a1.45,1.45,0,0,0,1-.3,1,1,0,0,0,.27-.37,1,1,0,0,0,.08-.44,1,1,0,0,0-.07-.46A1.21,1.21,0,0,0,118,15.61Z" fill="#353535"/><path d="M128.21,19.65v1.69H122V13.59h6.08v1.69h-3.91v1.3h3.44v1.64h-3.44v1.43Z" fill="#353535"/><path d="M130.54,21.25a4.47,4.47,0,0,1-1.44-.61l.72-1.6a5,5,0,0,0,2.56.76q1.26,0,1.26-.63a.5.5,0,0,0-.1-.31.48.48,0,0,0-.26-.18,6.6,6.6,0,0,0-1.15-.34,12.64,12.64,0,0,1-1.46-.4,2.57,2.57,0,0,1-1-.69,1.83,1.83,0,0,1-.42-1.29,2.2,2.2,0,0,1,.38-1.27,2.51,2.51,0,0,1,1.16-.9,4.87,4.87,0,0,1,1.89-.34,6.28,6.28,0,0,1,1.5.18,4.41,4.41,0,0,1,1.31.49l-.68,1.63a4.48,4.48,0,0,0-2.15-.6,1.83,1.83,0,0,0-1,.19.56.56,0,0,0-.22.21.48.48,0,0,0,.11.68.36.36,0,0,0,.15.08,6.51,6.51,0,0,0,1.15.31,10.51,10.51,0,0,1,1.46.4,2.57,2.57,0,0,1,1,.69,1.83,1.83,0,0,1,.43,1.27,2.16,2.16,0,0,1-.38,1.28,2.51,2.51,0,0,1-1.16.9,4.68,4.68,0,0,1-1.88.34A7.15,7.15,0,0,1,130.54,21.25Z" fill="#353535"/></svg>