<svg xmlns="http://www.w3.org/2000/svg" style="position:absolute;width:0;height:0;overflow:hidden" version="1.1">
  <defs>
    <symbol id="next" viewBox="0 0 32 32">
      <title>
        next
      </title>
      <path d="M0 16c0 8.836 7.164 16 16 16 8.837 0 16-7.164 16-16 0-8.837-7.163-16-16-16s-16 7.163-16 16zM24 16l-8 8v-6h-8v-4h8v-6l8 8z"/>
    </symbol>
    <symbol id="color-bars" preserveAspectRatio="none" viewBox="0 0 250 50">
      <rect width="50" height="50" x="0" y="0" fill="currentColor" class="text-primary"/>
      <rect width="50" height="50" x="50" y="0" fill="currentColor" class="text-warning"/>
      <rect width="50" height="50" x="100" y="0" fill="currentColor" class="text-danger"/>
      <rect width="50" height="50" x="150" y="0" fill="currentColor" class="text-secondary"/>
      <rect width="50" height="50" x="200" y="0" fill="currentColor" class="text-success"/>
    </symbol>
    <symbol id="arrow-up-right" viewBox="0 0 32 32">
    <title>arrow-up-right</title>
    <path d="M9.333 10.667h10.115l-11.057 11.057c-0.521 0.521-0.521 1.365 0 1.885s1.365 0.521 1.885 0l11.057-11.057v10.115c0 0.736 0.597 1.333 1.333 1.333s1.333-0.597 1.333-1.333v-13.333c0-0.181-0.036-0.353-0.101-0.511s-0.161-0.304-0.288-0.431c-0.001-0.001-0.001-0.001-0.003-0.003-0.123-0.123-0.269-0.221-0.431-0.288-0.157-0.065-0.329-0.101-0.511-0.101h-13.333c-0.736 0-1.333 0.597-1.333 1.333s0.597 1.333 1.333 1.333z"></path>
    </symbol>
    <symbol id="cta-left" viewBox="0 0 9.8 13.26">
      <title>
        cta-left
      </title>
      <path d="M.91,7c.8-.63,1.81.36,2.47.74a3.76,3.76,0,0,0,1.37.49c1.19.19,2.49-.23,3.57.42.58.35,1.09-.56.52-.9-1.43-.85-3-.13-4.51-.7S1.73,5,.18,6.26C-.35,6.68.4,7.4.92,7Z"/>
      <path d="M3.17,1C4.35,1.29,4.8,2.7,5.73,3.37s2.6.68,3,1.71c.25.61,1.26.35,1-.27-.58-1.38-1.83-1.42-3-2.06S5,.38,3.44,0C2.79-.14,2.52.87,3.17,1Z"/>
      <path d="M1.11,12.52c1.16.23,2.32.83,3.52.73,1.45-.12,3-2.12,4.39-1.44.6.25,1.11-.65.52-.9a3.12,3.12,0,0,0-3.15.47,3.51,3.51,0,0,1-3,.7c-.69-.16-1.34-.42-2-.56s-.92.87-.26,1Z"/>
    </symbol>
    <symbol id="cta-right" viewBox="0 0 9.8 13.26">
      <title>
        cta-right
      </title>
      <path d="M8.89,7c-.8-.63-1.8.36-2.47.74a3.69,3.69,0,0,1-1.37.49c-1.19.19-2.49-.23-3.57.42C.91,9,.39,8.08,1,7.74c1.43-.85,3-.13,4.51-.7s2.6-2,4.15-.78c.53.42-.22,1.14-.73.73Z"/>
      <path d="M6.63,1C5.45,1.29,5,2.7,4.07,3.37s-2.59.68-3,1.71c-.25.61-1.26.35-1-.27.57-1.38,1.82-1.42,3-2.06S4.8.38,6.36,0C7-.14,7.29.87,6.63,1Z"/>
      <path d="M8.69,12.52c-1.16.23-2.31.83-3.52.73-1.45-.12-3-2.12-4.39-1.44-.59.25-1.11-.65-.52-.9a3.12,3.12,0,0,1,3.15.47,3.52,3.52,0,0,0,3,.7c.69-.16,1.35-.42,2-.56s.93.87.27,1Z"/>
    </symbol>
    <symbol id="palette" viewBox="0 0 32 32">
      <title>
        palette
      </title>
      <path d="M14.4 32v-2.72l0.016-0.384 9.696-9.696h4.704c1.76 0 3.184 1.424 3.184 3.2v6.4c0 1.767-1.433 3.2-3.2 3.2v0h-14.4zM14.4 26.656v-18.112l3.328-3.312c0.577-0.579 1.375-0.937 2.256-0.937s1.679 0.358 2.256 0.937l4.528 4.528c0.575 0.578 0.931 1.376 0.931 2.256s-0.355 1.678-0.931 2.256l0-0-12.368 12.384zM0 3.184c0-1.744 1.424-3.184 3.2-3.184h6.4c1.767 0 3.2 1.433 3.2 3.2v0 25.6c0 1.767-1.433 3.2-3.2 3.2v0h-6.4c-1.767 0-3.2-1.433-3.2-3.2v0-25.6zM6.4 27.2c0.884 0 1.6-0.716 1.6-1.6s-0.716-1.6-1.6-1.6v0c-0.884 0-1.6 0.716-1.6 1.6s0.716 1.6 1.6 1.6v0z"/>
    </symbol>
    <symbol id="pen" viewBox="0 0 32 32">
      <title>
        pen
      </title>
      <path d="M29.395 2.58c-1.645-1.643-3.811-2.58-5.946-2.58-1.801 0-3.459 0.668-4.67 1.877l-4.867 4.904c-0.015 0.014-0.032 0.023-0.047 0.038-0.008 0.008-0.013 0.019-0.021 0.026l0.002 0.002-10.329 10.409c-0.476 0.473-0.821 1.062-1.013 1.705l-2.349 8.508c-0.002 0.023-0.155 0.691-0.155 1.031 0 1.932 1.569 3.5 3.504 3.5 0.385 0 1.13-0.184 1.157-0.188l8.478-2.229c0.644-0.191 1.229-0.539 1.705-1.016l15.263-15.383c2.776-2.778 2.463-7.434-0.712-10.604zM16.014 23.795c-0.082-0.902-0.337-1.787-0.719-2.627l9.455-9.454c0.578 1.826 0.281 3.736-0.986 5.004-0.008 0.008-0.018 0.013-0.025 0.021l0.014 0.013-7.728 7.79c0-0.249 0.012-0.493-0.011-0.747zM14.793 20.256c-0.373-0.613-0.797-1.205-1.322-1.729-0.611-0.611-1.312-1.090-2.044-1.492l9.532-9.532c0.748 0.332 1.465 0.805 2.098 1.438 0.541 0.539 0.959 1.143 1.281 1.771l-9.545 9.544zM10.486 16.562c-0.926-0.373-1.896-0.586-2.868-0.599l7.703-7.762c1.179-1.15 2.896-1.481 4.587-1.062l-9.422 9.423zM4.167 29.873c-0.109 0.025-0.448 0.111-0.678 0.127-0.822-0.010-1.489-0.678-1.489-1.5 0.012-0.168 0.079-0.457 0.102-0.562l1.053-3.814c1.143-0.031 2.373 0.414 3.34 1.383 0.982 0.98 1.444 2.234 1.394 3.391l-3.722 0.975zM8.874 28.637c-0.024-1.342-0.57-2.738-1.672-3.838-1.042-1.043-2.406-1.645-3.766-1.699l0.996-3.607c0.072-0.24 0.215-0.477 0.391-0.684 2.006-1.436 5.091-1.012 7.234 1.133 2.267 2.266 2.617 5.586 0.871 7.568-0.116 0.061-0.233 0.119-0.359 0.156l-3.695 0.971zM28.691 11.772l-1.684 1.697c0-0.226 0.027-0.443 0.006-0.674-0.176-1.935-1.078-3.806-2.543-5.269-1.629-1.63-3.789-2.565-5.928-2.571l1.656-1.67c0.829-0.827 1.986-1.285 3.251-1.285 1.609 0 3.262 0.728 4.533 1.995 1.193 1.191 1.904 2.671 2.006 4.168 0.094 1.397-0.367 2.678-1.297 3.609z"/>
    </symbol>
    <symbol id="megaphone" viewBox="0 0 32 32">
      <title>
        megaphone
      </title>
      <path d="M25 0c-2.053 0-3.666 1.41-4.824 3.586l-0.021-0.012c-1.682 3.293-4.186 5.426-6.929 5.426h-9.226c-2.243 0-4 2.197-4 5 0 2.805 1.757 5 4 5 1.103 0.004 1.995 0.896 1.995 2v9c0 1.105 0.896 2 2 2h4c1.104 0 2-0.895 2-2v-1c0-1-1-1.447-1-2v-7c0-0.023 0.016-0.039 0.018-0.062 0.010-0.143 0.049-0.275 0.112-0.395 0.018-0.033 0.037-0.059 0.059-0.088 0.080-0.119 0.181-0.217 0.304-0.293 0.006-0.004 0.008-0.010 0.014-0.014 0.004 0 0.007-0.004 0.011-0.004 0.080-0.045 0.176-0.055 0.266-0.080 2.524 0.268 4.809 2.305 6.377 5.373l0.025-0.012c1.159 2.169 2.768 3.575 4.819 3.575 4.596 0 7-7.043 7-14s-2.404-14-7-14zM20 14c0-1.037 0.061-2.039 0.164-3h2.836c1.104 0 2 1.344 2 3 0 1.658-0.896 3-2 3h-2.836c-0.103-0.961-0.164-1.961-0.164-3zM2 14c0-1.656 0.896-3 2-3h7.014c-0.62 0.729-1.014 1.787-1.014 3 0 1.215 0.394 2.273 1.014 3h-7.014c-1.104 0-2-1.342-2-3zM11.995 30h-4v-9c0-0.729-0.195-1.41-0.537-2h0.698v0.012h3.008c-0.107 0.311-0.169 0.641-0.169 0.988v7c0 0.963 0.538 1.604 0.859 1.986 0.044 0.053 0.096 0.107 0.141 0.166v0.848zM13.226 17.012h-0.226v-0.012c-1.104 0-2-1.342-2-3 0-1.656 0.896-3 2-3h0.226c1.886 0 3.652-0.742 5.206-2.018-0.286 1.61-0.432 3.315-0.432 5.018 0 1.709 0.146 3.42 0.434 5.031-1.555-1.277-3.322-2.019-5.208-2.019zM25 26c-2.018 0-3.75-2.871-4.541-7h2.541c2.242 0 4-2.195 4-5 0-2.803-1.758-5-4-5h-2.541c0.791-4.127 2.523-7 4.541-7 2.762 0 5 5.373 5 12s-2.238 12-5 12z"/>
    </symbol>
    <symbol id="display" viewBox="0 0 32 32">
      <title>
        display
      </title>
      <path d="M27 4.996l-22 0.004c-0.553 0-1 0.443-1 0.996v14c0 0.553 0.447 1 1 1h22c0.553 0 1-0.447 1-1v-14c0-0.553-0.447-1-1-1zM27 20h-22v-14.004h22v14.004zM29 1h-26c-1.657 0-3 1.342-3 3v20c0 1.654 1.338 2.994 2.99 2.998h10.010v1.217l-6.242 0.811c-0.446 0.111-0.758 0.511-0.758 0.97 0 0.553 0.447 1 1 1h18c0.553 0 1-0.447 1-1 0-0.459-0.312-0.859-0.758-0.971l-6.242-0.81v-1.217h10.010c1.652-0.004 2.99-1.344 2.99-2.998v-20c0-1.658-1.344-3-3-3zM30 24c0 0.551-0.449 1-1 1h-26c-0.552 0-1-0.449-1-1v-20c0-0.552 0.448-1 1-1h26c0.551 0 1 0.448 1 1v20z"/>
    </symbol>
    <symbol id="tools-2" viewBox="0 0 32 32">
      <title>
        tools-2
      </title>
      <path d="M28.354 1.354c0.115-0.115 0.167-0.279 0.139-0.439s-0.132-0.297-0.28-0.366c-2.291-1.080-5.010-0.606-6.798 1.191-1.698 1.709-2.291 4.393-1.499 6.637l-11.539 11.539c-0.627-0.224-1.297-0.336-1.996-0.336-1.714 0-3.376 0.682-4.559 1.872-1.782 1.792-2.284 4.44-1.281 6.747 0.066 0.152 0.203 0.262 0.366 0.292 0.164 0.031 0.331-0.021 0.447-0.139l3.491-3.509c0.23-0.232 0.601-0.263 0.793-0.068l1.507 1.577c0.219 0.221 0.209 0.562-0.022 0.795l-3.478 3.5c-0.115 0.115-0.166 0.279-0.138 0.439s0.132 0.296 0.279 0.365c0.829 0.391 1.701 0.588 2.591 0.588 1.572 0 3.065-0.632 4.207-1.78 1.698-1.708 2.291-4.392 1.498-6.636l11.539-11.54c0.628 0.224 1.298 0.336 1.997 0.336 1.714 0 3.376-0.682 4.559-1.872 1.782-1.792 2.284-4.44 1.281-6.747-0.066-0.152-0.203-0.262-0.366-0.292-0.161-0.028-0.33 0.021-0.447 0.139l-3.491 3.509c-0.215 0.216-0.58 0.214-0.801-0.010l-1.499-1.499c-0.226-0.227-0.225-0.568-0.001-0.794l3.501-3.499zM24.146 6.354l1.499 1.499c0.599 0.602 1.625 0.605 2.218 0.009l2.93-2.944c0.469 1.741-0.016 3.609-1.324 4.926-0.997 1.003-2.399 1.577-3.85 1.577-0.683 0-1.33-0.128-1.923-0.38-0.188-0.081-0.405-0.037-0.549 0.106l-12 12c-0.144 0.144-0.186 0.36-0.107 0.547 0.803 1.91 0.314 4.375-1.163 5.861-1.321 1.328-3.244 1.801-4.985 1.258l2.941-2.96c0.621-0.625 0.631-1.594 0.029-2.198l-1.506-1.577c-0.581-0.585-1.614-0.549-2.218 0.062l-2.93 2.944c-0.469-1.741 0.016-3.609 1.324-4.926 0.997-1.003 2.399-1.577 3.85-1.577 0.683 0 1.33 0.128 1.923 0.38 0.187 0.082 0.405 0.037 0.549-0.106l12-12c0.144-0.144 0.186-0.36 0.107-0.547-0.803-1.91-0.314-4.376 1.163-5.862 1.32-1.328 3.242-1.798 4.982-1.258l-2.96 2.961c-0.616 0.617-0.616 1.585 0 2.205zM29.21 30.647c-0.221 0.222-0.604 0.222-0.827-0.002l-10.030-10c-0.195-0.193-0.512-0.194-0.707 0.002s-0.194 0.512 0.001 0.707l10.029 9.998c0.3 0.301 0.698 0.467 1.122 0.467 0 0 0 0 0 0 0.424 0 0.822-0.166 1.128-0.474l1.429-1.493c0.615-0.618 0.615-1.587-0.001-2.206l-10-10c-0.195-0.195-0.512-0.195-0.707 0s-0.195 0.512 0 0.707l9.999 9.999c0.229 0.23 0.229 0.564-0.007 0.802l-1.429 1.493zM5.854 3.146l-3-3c-0.195-0.195-0.512-0.195-0.707 0l-2 2c-0.195 0.195-0.195 0.512 0 0.707l3 3c0.097 0.098 0.225 0.147 0.353 0.147s0.256-0.049 0.354-0.146l0.646-0.647 7.646 7.646c0.098 0.098 0.226 0.147 0.354 0.147s0.256-0.049 0.354-0.146c0.195-0.195 0.195-0.512 0-0.707l-7.647-7.647 0.646-0.646c0.196-0.196 0.196-0.512 0.001-0.708zM3.5 4.793l-2.293-2.293 1.293-1.293 2.293 2.293-1.293 1.293z"/>
    </symbol>
    <symbol id="clipboard" viewBox="0 0 28 32">
      <title>
        clipboard
      </title>
      <path d="M1.5 32h25c0.869 0 1.5-0.631 1.5-1.5v-28c0-0.869-0.631-1.5-1.5-1.5h-4c-0.276 0-0.5 0.224-0.5 0.5s0.224 0.5 0.5 0.5h4c0.313 0 0.5 0.187 0.5 0.5v28c0 0.313-0.187 0.5-0.5 0.5h-25c-0.313 0-0.5-0.187-0.5-0.5v-28c0-0.313 0.187-0.5 0.5-0.5h4c0.276 0 0.5-0.224 0.5-0.5s-0.224-0.5-0.5-0.5h-4c-0.869 0-1.5 0.631-1.5 1.5v28c0 0.869 0.631 1.5 1.5 1.5zM5.5 5c0.276 0 0.5-0.224 0.5-0.5s-0.224-0.5-0.5-0.5h-2c-0.276 0-0.5 0.224-0.5 0.5v24c0 0.276 0.224 0.5 0.5 0.5h21c0.276 0 0.5-0.224 0.5-0.5v-24c0-0.276-0.224-0.5-0.5-0.5h-2c-0.276 0-0.5 0.224-0.5 0.5s0.224 0.5 0.5 0.5h1.5v23h-20v-23h1.5zM9 7h10c1.215 0 2-0.785 2-2v-4.5c0-0.276-0.224-0.5-0.5-0.5h-13c-0.276 0-0.5 0.224-0.5 0.5v4.5c0 1.215 0.785 2 2 2zM8 1h12v4c0 0.664-0.337 1-1 1h-10c-0.663 0-1-0.336-1-1v-4zM8.5 16h11c0.276 0 0.5-0.224 0.5-0.5s-0.224-0.5-0.5-0.5h-11c-0.276 0-0.5 0.224-0.5 0.5s0.224 0.5 0.5 0.5zM8.5 12h11c0.276 0 0.5-0.224 0.5-0.5s-0.224-0.5-0.5-0.5h-11c-0.276 0-0.5 0.224-0.5 0.5s0.224 0.5 0.5 0.5zM8.5 20h11c0.276 0 0.5-0.224 0.5-0.5s-0.224-0.5-0.5-0.5h-11c-0.276 0-0.5 0.224-0.5 0.5s0.224 0.5 0.5 0.5zM8.5 24h11c0.276 0 0.5-0.224 0.5-0.5s-0.224-0.5-0.5-0.5h-11c-0.276 0-0.5 0.224-0.5 0.5s0.224 0.5 0.5 0.5z"/>
    </symbol>
    <symbol id="global" viewBox="0 0 32 32">
      <title>
        global
      </title>
      <path d="M0.034 16.668c0.354 8.511 7.369 15.332 15.966 15.332s15.612-6.821 15.966-15.332c0.019-0.053 0.034-0.108 0.034-0.168 0-0.036-0.013-0.067-0.020-0.1 0.003-0.134 0.020-0.265 0.020-0.4 0-8.822-7.178-16-16-16s-16 7.178-16 16c0 0.135 0.017 0.266 0.020 0.4-0.007 0.033-0.020 0.064-0.020 0.1 0 0.060 0.015 0.115 0.034 0.168zM24.921 22.742c-1.319-0.552-2.735-0.979-4.215-1.271 0.158-1.453 0.251-2.962 0.28-4.47h4.98c-0.091 2.054-0.456 3.993-1.045 5.741zM26.965 17h3.984c-0.186 2.806-1.138 5.403-2.663 7.579-0.759-0.533-1.577-1.019-2.457-1.44 0.645-1.869 1.042-3.943 1.136-6.139zM12.389 22.286c1.178-0.184 2.387-0.286 3.611-0.286s2.433 0.102 3.61 0.286c-0.694 5.335-2.21 8.714-3.61 8.714s-2.916-3.379-3.611-8.714zM13.908 30.664c-2.751-0.882-5.078-3.471-6.482-6.984 1.246-0.525 2.586-0.935 3.99-1.217 0.459 3.496 1.298 6.542 2.492 8.201zM12.274 10.709c1.217 0.188 2.465 0.291 3.726 0.291s2.509-0.103 3.726-0.291c0.172 1.62 0.274 3.388 0.274 5.291h-8c0-1.903 0.102-3.671 0.274-5.291zM19.985 17c-0.028 1.525-0.118 2.961-0.26 4.291-1.216-0.188-2.463-0.291-3.725-0.291s-2.509 0.103-3.726 0.291c-0.173-1.626-0.237-3.057-0.26-4.291h7.971zM20.585 22.463c1.404 0.282 2.743 0.692 3.99 1.217-1.404 3.513-3.731 6.102-6.482 6.984 1.193-1.659 2.032-4.705 2.492-8.201zM21 16c0-1.836-0.102-3.696-0.294-5.47 1.48-0.292 2.896-0.72 4.215-1.271 0.684 2.029 1.079 4.315 1.079 6.741h-5zM20.585 9.537c-0.46-3.496-1.298-6.543-2.493-8.201 2.751 0.882 5.078 3.471 6.482 6.984-1.246 0.525-2.585 0.936-3.989 1.217zM19.611 9.714c-1.178 0.184-2.387 0.286-3.611 0.286s-2.433-0.102-3.611-0.286c0.695-5.335 2.211-8.714 3.611-8.714s2.916 3.379 3.611 8.714zM11.415 9.537c-1.404-0.282-2.743-0.692-3.99-1.217 1.404-3.513 3.731-6.102 6.482-6.984-1.193 1.659-2.032 4.705-2.492 8.201zM11.294 10.53c-0.192 1.774-0.294 3.634-0.294 5.47h-5c0-2.426 0.395-4.712 1.079-6.742 1.319 0.552 2.735 0.979 4.215 1.272zM11.014 17c0.029 1.508 0.122 3.017 0.28 4.471-1.48 0.292-2.896 0.72-4.215 1.271-0.589-1.748-0.954-3.687-1.045-5.742h4.98zM6.17 23.139c-0.88 0.422-1.697 0.907-2.456 1.44-1.525-2.176-2.477-4.772-2.663-7.579h3.984c0.094 2.196 0.491 4.27 1.135 6.139zM4.313 25.38c0.685-0.479 1.417-0.922 2.207-1.305 1.004 2.485 2.449 4.548 4.186 5.943-2.526-0.958-4.729-2.568-6.393-4.638zM21.294 30.017c1.738-1.394 3.182-3.458 4.186-5.943 0.79 0.384 1.522 0.826 2.207 1.305-1.664 2.071-3.867 3.681-6.393 4.638zM27 16c0-2.567-0.428-4.987-1.17-7.139 0.88-0.422 1.698-0.907 2.457-1.44 1.704 2.434 2.713 5.389 2.713 8.579h-4zM27.688 6.62c-0.685 0.479-1.417 0.921-2.207 1.305-1.004-2.485-2.449-4.549-4.186-5.943 2.525 0.958 4.728 2.568 6.393 4.638zM10.706 1.983c-1.738 1.394-3.182 3.458-4.186 5.943-0.791-0.384-1.522-0.827-2.207-1.306 1.664-2.070 3.867-3.68 6.393-4.637zM3.714 7.421c0.758 0.533 1.576 1.018 2.456 1.44-0.742 2.152-1.17 4.572-1.17 7.139h-4c0-3.19 1.009-6.145 2.714-8.579z"/>
    </symbol>
    <symbol id="move" viewBox="0 0 32 32">
      <title>
        move
      </title>
      <path d="M17.975 22.025v0 0c1.141 0.232 2 1.241 2 2.45 0 1.381-1.119 2.5-2.5 2.5s-2.5-1.119-2.5-2.5c0-1.209 0.859-2.218 2-2.45v-3.343l-8-8v3.293h-1v-5h5v1h-3.302l8.302 8.375v3.675zM8.975 21.182l-1.768 1.768-0.707-0.707 1.768-1.768-1.768-1.768 0.707-0.707 1.768 1.768 1.768-1.768 0.707 0.707-1.768 1.768 1.768 1.768-0.707 0.707-1.768-1.768zM22.975 14.182l-1.768 1.768-0.707-0.707 1.768-1.768-1.768-1.768 0.707-0.707 1.768 1.768 1.768-1.768 0.707 0.707-1.768 1.768 1.768 1.768-0.707 0.707-1.768-1.768zM17.975 7.182l-1.768 1.768-0.707-0.707 1.768-1.768-1.768-1.768 0.707-0.707 1.768 1.768 1.768-1.768 0.707 0.707-1.768 1.768 1.768 1.768-0.707 0.707-1.768-1.768zM17.475 25.975c0.828 0 1.5-0.672 1.5-1.5s-0.672-1.5-1.5-1.5c-0.828 0-1.5 0.672-1.5 1.5s0.672 1.5 1.5 1.5v0z"/>
    </symbol>
    <symbol id="stop-watch" viewBox="0 0 32 32">
      <title>
        stop-watch
      </title>
      <path d="M7.729 11.022c1.53-1.403 3.44-2.397 5.559-2.81-0.786-0.642-1.288-1.619-1.288-2.713 0-1.933 1.567-3.5 3.5-3.5s3.5 1.567 3.5 3.5c0 1.094-0.502 2.071-1.288 2.713v0c2.118 0.413 4.029 1.407 5.559 2.81v0l1.229-1.229-0.707-0.707 0.707-0.707 2.121 2.121-0.707 0.707-0.707-0.707-1.229 1.229c1.877 2.047 3.022 4.775 3.022 7.771 0 6.351-5.149 11.5-11.5 11.5s-11.5-5.149-11.5-11.5c0-2.996 1.146-5.724 3.022-7.771l-1.229-1.229-0.707 0.707-0.707-0.707 2.121-2.121 0.707 0.707-0.707 0.707 1.229 1.229zM16.147 18.146l3.119-3.119c0.191-0.191 0.514-0.198 0.71-0.002 0.19 0.19 0.194 0.513-0.002 0.71l-3.119 3.119c0.094 0.196 0.146 0.415 0.146 0.647 0 0.828-0.672 1.5-1.5 1.5-0.232 0-0.451-0.052-0.647-0.146l-1.119 1.119c-0.191 0.191-0.514 0.198-0.71 0.002-0.19-0.19-0.194-0.513 0.002-0.71l1.119-1.119c-0.094-0.196-0.146-0.415-0.146-0.647 0-0.828 0.672-1.5 1.5-1.5 0.232 0 0.451 0.052 0.647 0.146v0 0zM16 7.95c1.141-0.232 2-1.24 2-2.45 0-1.381-1.119-2.5-2.5-2.5s-2.5 1.119-2.5 2.5c0 1.209 0.859 2.218 2 2.45v-1.95h-1v-1h3v1h-1v1.95zM8.016 19.998h2.496c0.271 0 0.49-0.232 0.49-0.5 0-0.276-0.215-0.5-0.49-0.5h-2.495c0.247-3.743 3.24-6.735 6.983-6.981v2.493c0 0.271 0.232 0.49 0.5 0.49 0.276 0 0.5-0.215 0.5-0.49v-2.493c3.743 0.246 6.736 3.239 6.983 6.981h-2.495c-0.271 0-0.49 0.232-0.49 0.5 0 0.276 0.215 0.5 0.49 0.5h2.496c-0.245 3.745-3.239 6.739-6.984 6.986v-2.498c0-0.271-0.232-0.49-0.5-0.49-0.276 0-0.5 0.215-0.5 0.49v2.498c-3.745-0.246-6.738-3.241-6.984-6.986zM15.5 30c5.799 0 10.5-4.701 10.5-10.5s-4.701-10.5-10.5-10.5c-5.799 0-10.5 4.701-10.5 10.5s4.701 10.5 10.5 10.5v0zM15.5 28c4.694 0 8.5-3.806 8.5-8.5s-3.806-8.5-8.5-8.5c-4.694 0-8.5 3.806-8.5 8.5s3.806 8.5 8.5 8.5v0zM15.5 20c0.276 0 0.5-0.224 0.5-0.5s-0.224-0.5-0.5-0.5c-0.276 0-0.5 0.224-0.5 0.5s0.224 0.5 0.5 0.5v0z"/>
    </symbol>
    <symbol id="barometer" viewBox="0 0 32 32">
      <title>
        barometer
      </title>
      <path d="M17.892 21.423c0.668 0.449 1.108 1.212 1.108 2.077 0 1.381-1.119 2.5-2.5 2.5s-2.5-1.119-2.5-2.5c0-0.866 0.44-1.628 1.108-2.077l1.392-7.423 1.392 7.423zM29.276 23.872c0.469-1.371 0.724-2.842 0.724-4.372 0-7.456-6.044-13.5-13.5-13.5s-13.5 6.044-13.5 13.5c0 1.53 0.255 3.001 0.724 4.372l0.958-0.29c-0.442-1.279-0.681-2.652-0.681-4.081 0-6.904 5.596-12.5 12.5-12.5s12.5 5.596 12.5 12.5c0 1.429-0.24 2.802-0.681 4.081l0.958 0.29zM16.5 25c0.828 0 1.5-0.672 1.5-1.5s-0.672-1.5-1.5-1.5c-0.828 0-1.5 0.672-1.5 1.5s0.672 1.5 1.5 1.5v0 0zM16.5 8c-0.276 0-0.5 0.215-0.5 0.49v3.019c0 0.271 0.232 0.49 0.5 0.49 0.276 0 0.5-0.215 0.5-0.49v-3.019c0-0.271-0.232-0.49-0.5-0.49v0 0zM23.261 10.197c-0.223-0.162-0.531-0.12-0.693 0.103l-1.775 2.442c-0.159 0.219-0.101 0.533 0.116 0.691 0.223 0.162 0.531 0.12 0.693-0.103l1.775-2.442c0.159-0.219 0.101-0.533-0.116-0.691v0 0zM27.44 15.948c-0.085-0.263-0.359-0.409-0.621-0.324l-2.871 0.933c-0.258 0.084-0.395 0.372-0.312 0.627 0.085 0.263 0.359 0.409 0.621 0.324l2.871-0.933c0.258-0.084 0.395-0.372 0.312-0.627v0 0zM27.44 23.058c0.085-0.263-0.050-0.542-0.312-0.627l-2.871-0.933c-0.258-0.084-0.538 0.069-0.621 0.324-0.085 0.263 0.050 0.542 0.312 0.627l2.871 0.933c0.258 0.084 0.538-0.069 0.621-0.324v0 0zM5.56 23.058c0.085 0.263 0.359 0.409 0.621 0.324l2.871-0.933c0.258-0.084 0.395-0.372 0.312-0.627-0.085-0.263-0.359-0.409-0.621-0.324l-2.871 0.933c-0.258 0.084-0.395 0.372-0.312 0.627v0 0zM5.56 15.948c-0.085 0.263 0.050 0.542 0.312 0.627l2.871 0.933c0.258 0.084 0.538-0.069 0.621-0.324 0.085-0.263-0.050-0.542-0.312-0.627l-2.871-0.933c-0.258-0.084-0.538 0.069-0.621 0.324v0 0zM9.739 10.197c-0.223 0.162-0.278 0.468-0.116 0.691l1.775 2.442c0.159 0.219 0.476 0.26 0.693 0.103 0.223-0.162 0.278-0.468 0.116-0.691l-1.775-2.442c-0.159-0.219-0.476-0.26-0.693-0.103v0 0z"/>
    </symbol>
    <symbol id="compass" viewBox="0 0 32 32">
      <title>
        compass
      </title>
      <path d="M16 29v0c-7.18 0-13-5.82-13-13s5.82-13 13-13c7.18 0 13 5.82 13 13s-5.82 13-13 13zM16 28c6.627 0 12-5.373 12-12s-5.373-12-12-12c-6.627 0-12 5.373-12 12s5.373 12 12 12v0zM18.121 18.121c-1.768 1.768-9.192 4.95-9.192 4.95s3.182-7.425 4.95-9.192c1.768-1.768 9.192-4.95 9.192-4.95s-3.182 7.425-4.95 9.192v0zM14.62 14.6c-1.414 1.414-3.606 6.435-3.606 6.435s5.020-2.192 6.435-3.606l-2.828-2.828z"/>
    </symbol>
    <symbol id="presentation" viewBox="0 0 31 32">
      <title>
        presentation
      </title>
      <path d="M0.5 3c-0.276 0-0.5 0.224-0.5 0.5v17c0 0.827 0.673 1.5 1.5 1.5h28c0.827 0 1.5-0.673 1.5-1.5v-17c0-0.276-0.224-0.5-0.5-0.5s-0.5 0.224-0.5 0.5v17c0 0.276-0.224 0.5-0.5 0.5h-28c-0.276 0-0.5-0.224-0.5-0.5v-17c0-0.276-0.224-0.5-0.5-0.5zM32.5 0h-34c-0.276 0-0.5 0.224-0.5 0.5s0.224 0.5 0.5 0.5h34c0.276 0 0.5-0.224 0.5-0.5s-0.224-0.5-0.5-0.5zM11.854 8.146c-0.183-0.183-0.475-0.196-0.674-0.031l-6 5c-0.212 0.177-0.241 0.492-0.064 0.705 0.177 0.212 0.491 0.241 0.705 0.064l5.649-4.708 5.677 5.677c0.097 0.098 0.225 0.147 0.353 0.147s0.256-0.049 0.354-0.146l7.146-7.147v3.793c0 0.276 0.224 0.5 0.5 0.5s0.5-0.224 0.5-0.5v-5c0-0.065-0.013-0.13-0.038-0.191-0.051-0.122-0.148-0.22-0.271-0.271-0.061-0.025-0.126-0.038-0.191-0.038h-5c-0.276 0-0.5 0.224-0.5 0.5s0.224 0.5 0.5 0.5h3.793l-6.793 6.793-5.646-5.647zM8.057 31.732c0.128 0.245 0.43 0.339 0.675 0.211l6.768-3.545 6.768 3.545c0.074 0.039 0.153 0.057 0.232 0.057 0.18 0 0.354-0.098 0.443-0.268 0.128-0.245 0.034-0.547-0.211-0.675l-6.893-3.61c0.098-0.091 0.161-0.219 0.161-0.364v-2.583c0-0.276-0.224-0.5-0.5-0.5s-0.5 0.224-0.5 0.5v2.583c0 0.144 0.063 0.272 0.161 0.363l-6.893 3.61c-0.245 0.129-0.339 0.431-0.211 0.676z"/>
    </symbol>
    <symbol id="gears" viewBox="0 0 42 32">
      <title>
        gears
      </title>
      <path d="M3.692 21.72c0.176 0.042 0.415 0.259 0.484 0.457l0.35 0.844c0.079 0.162 0.064 0.483-0.030 0.637l-1.397 2.284c-0.299 0.49-0.237 1.184 0.165 1.634l1.183 1.182c0.412 0.366 1.139 0.432 1.613 0.145l2.284-1.397c0.143-0.088 0.45-0.119 0.665-0.018l0.843 0.348c0.17 0.059 0.387 0.297 0.429 0.473l0.627 2.604c0.133 0.552 0.66 1.006 1.226 1.058 0 0 0.347 0.032 0.867 0.032s0.867-0.032 0.868-0.032c0.565-0.051 1.092-0.506 1.225-1.058l0.628-2.604c0.042-0.175 0.258-0.414 0.456-0.483l0.844-0.35c0.149-0.073 0.494-0.058 0.637 0.030l2.284 1.397c0.201 0.123 0.441 0.188 0.696 0.188 0.345 0 0.679-0.121 0.938-0.352l1.182-1.183c0.382-0.429 0.444-1.123 0.145-1.613l-1.397-2.284c-0.094-0.154-0.109-0.475-0.018-0.665l0.348-0.843c0.059-0.17 0.297-0.387 0.473-0.429l2.604-0.627c0.552-0.133 1.006-0.66 1.058-1.226 0 0 0.032-0.347 0.032-0.867s-0.032-0.867-0.032-0.868c-0.051-0.565-0.506-1.092-1.058-1.226l-2.603-0.626c-0.176-0.042-0.415-0.259-0.484-0.457l-0.35-0.844c-0.079-0.162-0.064-0.483 0.030-0.637l1.397-2.284c0.299-0.49 0.237-1.184-0.165-1.634l-1.183-1.182c-0.413-0.367-1.141-0.433-1.613-0.145l-2.284 1.397c-0.143 0.087-0.451 0.12-0.665 0.018l-0.843-0.348c-0.17-0.059-0.386-0.297-0.428-0.473l-0.628-2.604c-0.133-0.552-0.66-1.006-1.226-1.058-0.002 0.001-0.349-0.031-0.869-0.031s-0.867 0.032-0.868 0.032c-0.565 0.051-1.092 0.506-1.226 1.058l-0.626 2.602c-0.042 0.176-0.259 0.415-0.457 0.484l-0.844 0.35c-0.15 0.073-0.494 0.057-0.637-0.030l-2.283-1.397c-0.473-0.288-1.185-0.238-1.634 0.164l-1.182 1.183c-0.382 0.429-0.444 1.123-0.145 1.613l1.397 2.284c0.094 0.154 0.109 0.475 0.018 0.665l-0.348 0.843c-0.059 0.17-0.297 0.387-0.473 0.429l-2.604 0.627c-0.552 0.133-1.006 0.66-1.058 1.226 0.002 0-0.030 0.347-0.030 0.867s0.032 0.867 0.032 0.868c0.051 0.565 0.506 1.092 1.058 1.226l2.602 0.626zM1 19c0-0.458 0.027-0.767 0.028-0.777 0.012-0.135 0.165-0.312 0.296-0.344l2.604-0.627c0.505-0.122 1.014-0.584 1.172-1.047l0.324-0.787c0.228-0.467 0.196-1.153-0.075-1.597l-1.397-2.283c-0.067-0.111-0.048-0.331 0.018-0.406l1.141-1.142c0.091-0.081 0.323-0.101 0.427-0.038l2.284 1.397c0.433 0.265 1.175 0.283 1.568 0.088l0.788-0.326c0.491-0.169 0.953-0.678 1.075-1.184l0.626-2.603c0.032-0.132 0.209-0.285 0.344-0.297 0.010 0 0.319-0.027 0.777-0.027s0.767 0.027 0.777 0.028c0.135 0.012 0.312 0.165 0.344 0.296l0.627 2.603c0.122 0.505 0.583 1.015 1.047 1.173l0.787 0.324c0.457 0.224 1.165 0.189 1.597-0.075l2.283-1.397c0.104-0.063 0.35-0.030 0.406 0.018l1.142 1.141c0.086 0.097 0.105 0.316 0.038 0.427l-1.397 2.284c-0.271 0.443-0.303 1.13-0.088 1.568l0.326 0.788c0.169 0.491 0.678 0.953 1.184 1.075l2.603 0.626c0.132 0.032 0.285 0.209 0.297 0.344 0 0.010 0.027 0.319 0.027 0.777s-0.027 0.767-0.028 0.777c-0.012 0.135-0.165 0.312-0.296 0.344l-2.604 0.627c-0.505 0.122-1.014 0.584-1.172 1.047l-0.324 0.787c-0.228 0.467-0.196 1.153 0.075 1.597l1.397 2.283c0.067 0.111 0.048 0.331-0.018 0.406l-1.141 1.142c-0.054 0.048-0.152 0.079-0.251 0.079-0.069 0-0.133-0.015-0.175-0.041l-2.284-1.397c-0.432-0.264-1.174-0.283-1.568-0.088l-0.788 0.326c-0.491 0.169-0.953 0.679-1.074 1.184l-0.627 2.603c-0.032 0.132-0.209 0.285-0.344 0.297-0.011 0-0.32 0.027-0.778 0.027s-0.767-0.027-0.777-0.028c-0.135-0.012-0.312-0.165-0.344-0.296l-0.627-2.604c-0.122-0.505-0.584-1.014-1.047-1.172l-0.787-0.324c-0.204-0.1-0.451-0.152-0.715-0.152-0.329 0-0.642 0.081-0.882 0.228l-2.283 1.397c-0.104 0.063-0.351 0.029-0.406-0.018l-1.142-1.142c-0.086-0.097-0.105-0.316-0.038-0.427l1.397-2.284c0.271-0.443 0.303-1.13 0.088-1.568l-0.326-0.788c-0.169-0.491-0.678-0.953-1.184-1.075l-2.603-0.626c-0.132-0.032-0.285-0.209-0.297-0.344 0-0.010-0.027-0.319-0.027-0.777zM13 24.5c3.033 0 5.5-2.467 5.5-5.5s-2.467-5.5-5.5-5.5-5.5 2.467-5.5 5.5 2.467 5.5 5.5 5.5zM13 14.5c2.481 0 4.5 2.019 4.5 4.5s-2.019 4.5-4.5 4.5-4.5-2.019-4.5-4.5 2.019-4.5 4.5-4.5zM27.477 5.314c-0.040 0.061-0.185 0.138-0.259 0.138l-1.861-0.018c-0.452 0-0.905 0.321-1.053 0.746 0 0-0.082 0.233-0.172 0.59s-0.128 0.601-0.128 0.601c-0.070 0.451 0.181 0.95 0.584 1.161l1.641 0.86c0.063 0.033 0.156 0.172 0.166 0.273l0.093 0.635c0.015 0.070-0.033 0.23-0.084 0.28l-1.322 1.296c-0.331 0.324-0.418 0.878-0.19 1.313l0.599 1c0.253 0.372 0.801 0.562 1.231 0.428l1.824-0.558c0.099 0 0.198 0.038 0.254 0.083l0.515 0.38c0.060 0.040 0.139 0.187 0.138 0.259l-0.018 1.852c-0.004 0.456 0.316 0.913 0.746 1.063 0 0 0.233 0.082 0.59 0.172s0.601 0.128 0.601 0.128c0.026 0.004 0.13 0.012 0.156 0.012 0.408 0 0.822-0.245 1.005-0.596l0.86-1.641c0.033-0.063 0.172-0.156 0.273-0.166l0.663-0.096c0.1 0 0.218 0.052 0.251 0.086l1.296 1.322c0.315 0.322 0.846 0.437 1.313 0.19l0.999-0.599c0.382-0.26 0.567-0.79 0.429-1.231l-0.552-1.767c-0.021-0.068 0.012-0.232 0.078-0.311l0.38-0.515c0.040-0.061 0.185-0.138 0.259-0.138l1.861 0.018c0.452 0 0.905-0.321 1.053-0.746 0 0 0.082-0.233 0.172-0.59s0.128-0.601 0.128-0.601c0.070-0.451-0.181-0.95-0.584-1.161l-1.641-0.86c-0.063-0.033-0.156-0.172-0.166-0.273l-0.092-0.633c-0.015-0.070 0.033-0.23 0.084-0.28l1.322-1.296c0.331-0.324 0.418-0.878 0.19-1.313l-0.599-1c-0.253-0.371-0.8-0.563-1.231-0.429l-1.825 0.558c-0.099 0-0.198-0.038-0.254-0.083l-0.515-0.38c-0.060-0.040-0.139-0.187-0.138-0.259l0.018-1.852c0.004-0.456-0.316-0.913-0.746-1.063 0 0-0.233-0.082-0.59-0.172s-0.601-0.128-0.601-0.128c-0.026-0.003-0.13-0.011-0.156-0.011-0.408 0-0.822 0.245-1.005 0.596l-0.86 1.641c-0.033 0.063-0.172 0.156-0.273 0.166l-0.663 0.095c-0.1 0-0.218-0.052-0.251-0.086l-1.296-1.322c-0.314-0.321-0.844-0.437-1.313-0.19l-1 0.598c-0.382 0.26-0.567 0.79-0.429 1.231l0.552 1.767c0.021 0.068-0.012 0.232-0.078 0.311l-0.379 0.515zM28.297 5.886l0.343-0.466c0.268-0.317 0.372-0.834 0.248-1.229l-0.551-1.766c-0.005-0.028 0.017-0.091 0.012-0.092l0.948-0.568 0.113 0.017 1.297 1.322c0.23 0.234 0.609 0.386 0.965 0.386 0.082 0 0.161-0.008 0.204-0.019l0.575-0.085c0.412-0.036 0.851-0.328 1.043-0.694l0.859-1.64c0.016-0.025 0.079-0.061 0.12-0.061 0.011 0.001 0.215 0.035 0.513 0.109s0.493 0.142 0.502 0.146c0.031 0.013 0.076 0.078 0.078 0.11l-0.018 1.852c-0.004 0.414 0.245 0.879 0.567 1.089l0.465 0.343c0.309 0.261 0.839 0.371 1.229 0.248l1.774-0.552c0.042 0 0.089 0.026 0.083 0.013l0.568 0.948c0.011 0.026 0 0.092-0.017 0.113l-1.322 1.297c-0.295 0.291-0.448 0.795-0.367 1.169l0.084 0.575c0.036 0.412 0.328 0.851 0.695 1.043l1.64 0.859c0.028 0.018 0.063 0.088 0.061 0.12-0.001 0.011-0.035 0.215-0.109 0.513s-0.142 0.493-0.146 0.502c-0.013 0.031-0.078 0.076-0.11 0.078l-1.862-0.018c-0.411 0-0.871 0.249-1.079 0.567l-0.342 0.465c-0.268 0.317-0.372 0.834-0.248 1.229l0.551 1.766c0.005 0.027-0.017 0.091-0.012 0.092l-0.948 0.568-0.113-0.017-1.297-1.322c-0.23-0.234-0.609-0.386-0.965-0.386-0.082 0-0.161 0.008-0.204 0.019l-0.575 0.085c-0.412 0.036-0.851 0.328-1.043 0.694l-0.859 1.64c-0.016 0.025-0.079 0.061-0.12 0.061v0c-0.011-0.001-0.215-0.035-0.513-0.109-0.297-0.075-0.493-0.142-0.502-0.146-0.031-0.013-0.076-0.078-0.078-0.11l0.018-1.852c0.004-0.414-0.245-0.879-0.567-1.089l-0.465-0.343c-0.222-0.188-0.549-0.3-0.875-0.3-0.126 0-0.246 0.018-0.355 0.052l-1.774 0.552c-0.043 0-0.090-0.023-0.083-0.013l-0.568-0.948c-0.011-0.026 0-0.092 0.017-0.113l1.322-1.297c0.295-0.291 0.448-0.795 0.367-1.169l-0.084-0.574c-0.036-0.412-0.328-0.851-0.695-1.043l-1.64-0.859c-0.028-0.018-0.063-0.088-0.061-0.12 0.001-0.011 0.035-0.215 0.109-0.513 0.075-0.297 0.142-0.493 0.146-0.502 0.013-0.031 0.078-0.076 0.11-0.078l1.862 0.018c0.411 0 0.871-0.249 1.079-0.567zM33 12c1.654 0 3-1.346 3-3s-1.346-3-3-3-3 1.346-3 3 1.346 3 3 3zM33 7c1.103 0 2 0.897 2 2s-0.897 2-2 2-2-0.897-2-2 0.897-2 2-2z"/>
    </symbol>
    <symbol id="chat" viewBox="0 0 42 32">
      <title>
        chat
      </title>
      <path d="M35.652 14.023c-0.264-0.082-0.544 0.062-0.628 0.325-0.083 0.263 0.062 0.544 0.325 0.628 3.908 1.245 5.651 3.102 5.651 6.024 0 2.599-2.371 4.616-3.783 5.588-0.136 0.094-0.217 0.247-0.217 0.412v3.823c-0.73-0.272-2.003-0.89-3.126-2.155-0.117-0.131-0.295-0.191-0.468-0.159-0.285 0.055-0.576 0.133-0.871 0.212-0.51 0.137-1.036 0.279-1.535 0.279-2.568 0-4.366-0.552-6.204-1.903-0.224-0.164-0.535-0.115-0.699 0.107-0.164 0.223-0.116 0.535 0.106 0.699 2.027 1.49 3.996 2.097 6.797 2.097 0.631 0 1.223-0.159 1.795-0.313 0.178-0.049 0.355-0.097 0.53-0.138 1.869 1.974 3.983 2.423 4.075 2.441 0.033 0.007 0.066 0.010 0.1 0.010 0.114 0 0.227-0.039 0.316-0.113 0.117-0.095 0.184-0.237 0.184-0.387v-4.239c2.582-1.841 4-4.057 4-6.261 0-3.381-2.017-5.598-6.348-6.977zM33 13.5c0-7.696-7.018-13.5-16.323-13.5-9.352 0-16.677 5.931-16.677 13.502 0 4.539 3.211 7.791 6 9.759v6.636c0 0.17 0.086 0.327 0.228 0.42 0.083 0.053 0.177 0.080 0.272 0.080 0.069 0 0.139-0.015 0.205-0.044 0.146-0.065 3.559-1.616 6.479-4.809 1.265 0.235 2.696 0.461 3.994 0.461 9.463 0 15.822-5.026 15.822-12.505zM17.177 25.005c-1.31 0-2.799-0.251-4.083-0.496-0.173-0.031-0.351 0.028-0.468 0.159-2.050 2.312-4.459 3.781-5.626 4.414v-6.082c0-0.165-0.081-0.318-0.217-0.412-2.638-1.815-5.783-4.863-5.783-9.086 0-7.011 6.886-12.502 15.677-12.502 8.736 0 15.323 5.374 15.323 12.5 0 6.882-5.957 11.505-14.823 11.505zM16.5 11.5c-1.103 0-2 0.897-2 2s0.897 2 2 2 2-0.897 2-2-0.897-2-2-2zM16.5 14.5c-0.551 0-1-0.448-1-1s0.449-1 1-1 1 0.448 1 1-0.449 1-1 1zM23.5 11.5c-1.103 0-2 0.897-2 2s0.897 2 2 2 2-0.897 2-2-0.897-2-2-2zM23.5 14.5c-0.551 0-1-0.448-1-1s0.449-1 1-1 1 0.448 1 1-0.449 1-1 1zM9.5 11.595c-1.103 0-2 0.897-2 2s0.897 2 2 2 2-0.897 2-2-0.897-2-2-2zM9.5 14.595c-0.551 0-1-0.448-1-1s0.449-1 1-1 1 0.448 1 1-0.449 1-1 1z"/>
    </symbol>
    <symbol id="browser" viewBox="0 0 42 32">
      <title>
        browser
      </title>
      <path d="M41.5 10c-0.276 0-0.5 0.224-0.5 0.5v20c0 0.276-0.224 0.5-0.5 0.5h-39c-0.276 0-0.5-0.224-0.5-0.5v-20c0-0.276-0.224-0.5-0.5-0.5s-0.5 0.224-0.5 0.5v20c0 0.827 0.673 1.5 1.5 1.5h39c0.827 0 1.5-0.673 1.5-1.5v-20c0-0.276-0.224-0.5-0.5-0.5zM40.5 0h-39c-0.827 0-1.5 0.673-1.5 1.5v6c0 0.276 0.224 0.5 0.5 0.5h41c0.276 0 0.5-0.224 0.5-0.5v-6c0-0.827-0.673-1.5-1.5-1.5zM41 7h-40v-5.5c0-0.276 0.224-0.5 0.5-0.5h39c0.276 0 0.5 0.224 0.5 0.5v5.5zM17.5 28c0.276 0 0.5-0.224 0.5-0.5v-16c0-0.276-0.224-0.5-0.5-0.5h-13c-0.276 0-0.5 0.224-0.5 0.5v16c0 0.276 0.224 0.5 0.5 0.5h13zM5 12h12v15h-12v-15zM22.5 15h15c0.276 0 0.5-0.224 0.5-0.5s-0.224-0.5-0.5-0.5h-15c-0.276 0-0.5 0.224-0.5 0.5s0.224 0.5 0.5 0.5zM22.5 20h15c0.276 0 0.5-0.224 0.5-0.5s-0.224-0.5-0.5-0.5h-15c-0.276 0-0.5 0.224-0.5 0.5s0.224 0.5 0.5 0.5zM22.5 25h15c0.276 0 0.5-0.224 0.5-0.5s-0.224-0.5-0.5-0.5h-15c-0.276 0-0.5 0.224-0.5 0.5s0.224 0.5 0.5 0.5zM3 4c0 0.552 0.448 1 1 1s1-0.448 1-1c0-0.552-0.448-1-1-1s-1 0.448-1 1zM7 4c0 0.552 0.448 1 1 1s1-0.448 1-1c0-0.552-0.448-1-1-1s-1 0.448-1 1zM11 4c0 0.552 0.448 1 1 1s1-0.448 1-1c0-0.552-0.448-1-1-1s-1 0.448-1 1z"/>
    </symbol>
    <symbol id="instagram" viewBox="0 0 24 28">
      <title>
        instagram
      </title>
      <path d="M16 14c0-2.203-1.797-4-4-4s-4 1.797-4 4 1.797 4 4 4 4-1.797 4-4zM18.156 14c0 3.406-2.75 6.156-6.156 6.156s-6.156-2.75-6.156-6.156 2.75-6.156 6.156-6.156 6.156 2.75 6.156 6.156zM19.844 7.594c0 0.797-0.641 1.437-1.437 1.437s-1.437-0.641-1.437-1.437 0.641-1.437 1.437-1.437 1.437 0.641 1.437 1.437zM12 4.156c-1.75 0-5.5-0.141-7.078 0.484-0.547 0.219-0.953 0.484-1.375 0.906s-0.688 0.828-0.906 1.375c-0.625 1.578-0.484 5.328-0.484 7.078s-0.141 5.5 0.484 7.078c0.219 0.547 0.484 0.953 0.906 1.375s0.828 0.688 1.375 0.906c1.578 0.625 5.328 0.484 7.078 0.484s5.5 0.141 7.078-0.484c0.547-0.219 0.953-0.484 1.375-0.906s0.688-0.828 0.906-1.375c0.625-1.578 0.484-5.328 0.484-7.078s0.141-5.5-0.484-7.078c-0.219-0.547-0.484-0.953-0.906-1.375s-0.828-0.688-1.375-0.906c-1.578-0.625-5.328-0.484-7.078-0.484zM24 14c0 1.656 0.016 3.297-0.078 4.953-0.094 1.922-0.531 3.625-1.937 5.031s-3.109 1.844-5.031 1.937c-1.656 0.094-3.297 0.078-4.953 0.078s-3.297 0.016-4.953-0.078c-1.922-0.094-3.625-0.531-5.031-1.937s-1.844-3.109-1.937-5.031c-0.094-1.656-0.078-3.297-0.078-4.953s-0.016-3.297 0.078-4.953c0.094-1.922 0.531-3.625 1.937-5.031s3.109-1.844 5.031-1.937c1.656-0.094 3.297-0.078 4.953-0.078s3.297-0.016 4.953 0.078c1.922 0.094 3.625 0.531 5.031 1.937s1.844 3.109 1.937 5.031c0.094 1.656 0.078 3.297 0.078 4.953z"/>
    </symbol>
    <symbol id="twitter" viewBox="0 0 24 28">
      <title>
        twitter
      </title>
      <path d="M20 9.531c-0.594 0.266-1.219 0.438-1.891 0.531 0.688-0.406 1.203-1.062 1.453-1.828-0.641 0.375-1.344 0.656-2.094 0.797-0.594-0.641-1.453-1.031-2.391-1.031-1.813 0-3.281 1.469-3.281 3.281 0 0.25 0.016 0.516 0.078 0.75-2.734-0.141-5.156-1.437-6.781-3.437-0.281 0.484-0.453 1.062-0.453 1.656 0 1.141 0.531 2.141 1.422 2.734-0.547-0.016-1.062-0.172-1.563-0.406v0.031c0 1.594 1.203 2.922 2.703 3.219-0.281 0.078-0.5 0.125-0.797 0.125-0.203 0-0.406-0.031-0.609-0.063 0.422 1.297 1.625 2.25 3.063 2.281-1.125 0.875-2.531 1.406-4.078 1.406-0.266 0-0.531-0.016-0.781-0.047 1.453 0.922 3.172 1.469 5.031 1.469 6.031 0 9.344-5 9.344-9.344 0-0.141 0-0.281-0.016-0.422 0.641-0.453 1.203-1.031 1.641-1.703zM24 6.5v15c0 2.484-2.016 4.5-4.5 4.5h-15c-2.484 0-4.5-2.016-4.5-4.5v-15c0-2.484 2.016-4.5 4.5-4.5h15c2.484 0 4.5 2.016 4.5 4.5z"/>
    </symbol>
    <symbol id="facebook" viewBox="0 0 24 28">
      <title>
        facebook
      </title>
      <path d="M19.5 2c2.484 0 4.5 2.016 4.5 4.5v15c0 2.484-2.016 4.5-4.5 4.5h-2.938v-9.297h3.109l0.469-3.625h-3.578v-2.312c0-1.047 0.281-1.75 1.797-1.75l1.906-0.016v-3.234c-0.328-0.047-1.469-0.141-2.781-0.141-2.766 0-4.672 1.687-4.672 4.781v2.672h-3.125v3.625h3.125v9.297h-8.313c-2.484 0-4.5-2.016-4.5-4.5v-15c0-2.484 2.016-4.5 4.5-4.5h15z"/>
    </symbol>
    <!-- Alt Social -->
    <symbol id="whatsapp" viewBox="0 0 27 32">
<title>whatsapp</title>
<path d="M17.589 17.393c0.304 0 3.214 1.518 3.339 1.732 0.036 0.089 0.036 0.196 0.036 0.268 0 0.446-0.143 0.946-0.304 1.357-0.411 1-2.071 1.643-3.089 1.643-0.857 0-2.625-0.75-3.393-1.107-2.554-1.161-4.143-3.143-5.679-5.411-0.679-1-1.286-2.232-1.268-3.464v-0.143c0.036-1.179 0.464-2.018 1.321-2.821 0.268-0.25 0.554-0.393 0.929-0.393 0.214 0 0.429 0.054 0.661 0.054 0.482 0 0.571 0.143 0.75 0.607 0.125 0.304 1.036 2.732 1.036 2.911 0 0.679-1.232 1.446-1.232 1.857 0 0.089 0.036 0.179 0.089 0.268 0.393 0.839 1.143 1.804 1.821 2.446 0.821 0.786 1.696 1.304 2.696 1.804 0.125 0.071 0.25 0.125 0.393 0.125 0.536 0 1.429-1.732 1.893-1.732zM13.964 26.857c6.179 0 11.214-5.036 11.214-11.214s-5.036-11.214-11.214-11.214-11.214 5.036-11.214 11.214c0 2.357 0.75 4.661 2.143 6.571l-1.411 4.161 4.321-1.375c1.821 1.196 3.982 1.857 6.161 1.857zM13.964 2.179c7.429 0 13.464 6.036 13.464 13.464s-6.036 13.464-13.464 13.464c-2.268 0-4.518-0.571-6.518-1.679l-7.446 2.393 2.429-7.232c-1.268-2.089-1.929-4.5-1.929-6.946 0-7.429 6.036-13.464 13.464-13.464z"></path>
</symbol>
<symbol id="instagram-alt" viewBox="0 0 32 32">
<title>instagram-alt</title>
<path d="M9.333 1.333c-2.209 0-4.211 0.897-5.657 2.343s-2.343 3.448-2.343 5.657v13.333c0 2.209 0.897 4.211 2.343 5.657s3.448 2.343 5.657 2.343h13.333c2.209 0 4.211-0.897 5.657-2.343s2.343-3.448 2.343-5.657v-13.333c0-2.209-0.897-4.211-2.343-5.657s-3.448-2.343-5.657-2.343zM9.333 4h13.333c1.473 0 2.804 0.596 3.771 1.563s1.563 2.297 1.563 3.771v13.333c0 1.473-0.596 2.804-1.563 3.771s-2.297 1.563-3.771 1.563h-13.333c-1.473 0-2.804-0.596-3.771-1.563s-1.563-2.297-1.563-3.771v-13.333c0-1.473 0.596-2.804 1.563-3.771s2.297-1.563 3.771-1.563zM22.652 14.964c-0.2-1.296-0.761-2.476-1.592-3.423-1.005-1.148-2.405-1.953-4.012-2.192-0.619-0.099-1.293-0.103-1.969-0.003-1.821 0.269-3.361 1.255-4.376 2.623s-1.511 3.129-1.24 4.949 1.255 3.361 2.623 4.376 3.129 1.511 4.949 1.24 3.361-1.255 4.376-2.623 1.511-3.129 1.24-4.949zM20.015 15.356c0.163 1.093-0.133 2.145-0.744 2.969s-1.533 1.412-2.625 1.573-2.145-0.133-2.969-0.744-1.412-1.533-1.573-2.625 0.133-2.145 0.744-2.969 1.533-1.412 2.625-1.573c0.417-0.061 0.82-0.056 1.16-0.003 0.987 0.147 1.821 0.627 2.424 1.315 0.5 0.571 0.84 1.284 0.96 2.057zM24.667 8.667c0-0.736-0.597-1.333-1.333-1.333s-1.333 0.597-1.333 1.333 0.597 1.333 1.333 1.333 1.333-0.597 1.333-1.333z"></path>
</symbol>
<symbol id="twitter-alt" viewBox="0 0 32 32">
<title>twitter-alt</title>
<path d="M27.777 7.016c-0.248 0.323-0.521 0.633-0.821 0.928-0.311 0.309-0.463 0.756-0.371 1.211 0.049 0.243 0.080 0.539 0.081 0.845 0 7.008-3.239 11.961-7.747 14.531-3.529 2.012-7.917 2.607-12.296 1.493 1.66-0.481 3.28-1.228 4.791-2.253 0.196-0.132 0.364-0.324 0.469-0.561 0.299-0.673-0.004-1.461-0.677-1.76-3.699-1.644-5.507-3.908-6.359-6.124-0.556-1.445-0.728-2.931-0.693-4.303 0.028-1.081 0.184-2.080 0.371-2.909 0.527 0.456 1.072 0.94 1.648 1.383 2.735 2.103 6.165 3.307 9.861 3.211 0.721-0.020 1.299-0.609 1.299-1.333v-1.348c-0.003-0.239 0.012-0.476 0.045-0.712 0.151-1.075 0.672-2.092 1.549-2.855 0.967-0.841 2.181-1.211 3.368-1.128s2.337 0.617 3.179 1.584c0.336 0.381 0.865 0.555 1.377 0.405 0.308-0.089 0.617-0.191 0.927-0.304zM29.899 2.911c-0.987 0.696-2.031 1.235-3.049 1.607-1.241-1.115-2.788-1.736-4.368-1.847-1.864-0.129-3.781 0.452-5.303 1.776-1.381 1.201-2.203 2.809-2.44 4.496-0.049 0.353-0.073 0.711-0.072 1.067-2.563-0.189-4.925-1.133-6.868-2.628-1.033-0.795-1.948-1.745-2.712-2.82-0.427-0.6-1.259-0.743-1.859-0.316-0.205 0.145-0.356 0.337-0.447 0.545 0 0-0.176 0.399-0.38 1.013-0.149 0.449-0.321 1.033-0.476 1.72-0.217 0.963-0.403 2.136-0.435 3.428-0.041 1.636 0.16 3.483 0.869 5.328 0.911 2.367 2.621 4.637 5.529 6.431-2.092 0.968-4.327 1.385-6.497 1.289-0.736-0.032-1.359 0.537-1.391 1.273-0.023 0.519 0.253 0.981 0.684 1.224 6.54 3.633 13.901 3.571 19.555 0.348 5.388-3.068 9.093-8.933 9.093-16.845-0.001-0.223-0.011-0.44-0.031-0.652 1.341-1.487 2.235-3.239 2.661-5.041 0.169-0.716-0.275-1.435-0.991-1.604-0.387-0.092-0.773-0.004-1.076 0.208z"></path>
</symbol>
<symbol id="facebook-alt" viewBox="0 0 32 32">
<title>facebook-alt</title>
<path d="M22.667 4v2.667h-2.667c-0.736 0-1.404 0.3-1.885 0.781s-0.781 1.149-0.781 1.885v4c0 0.736 0.597 1.333 1.333 1.333h3.625l-0.667 2.667h-2.959c-0.736 0-1.333 0.597-1.333 1.333v9.333h-2.667v-9.333c0-0.736-0.597-1.333-1.333-1.333h-2.667v-2.667h2.667c0.736 0 1.333-0.597 1.333-1.333v-4c0-1.473 0.596-2.804 1.563-3.771s2.297-1.563 3.771-1.563zM24 1.333h-4c-2.209 0-4.211 0.897-5.657 2.343s-2.343 3.448-2.343 5.657v2.667h-2.667c-0.736 0-1.333 0.597-1.333 1.333v5.333c0 0.736 0.597 1.333 1.333 1.333h2.667v9.333c0 0.736 0.597 1.333 1.333 1.333h5.333c0.736 0 1.333-0.597 1.333-1.333v-9.333h2.667c0.621 0 1.144-0.425 1.293-1.009l1.333-5.333c0.179-0.715-0.256-1.439-0.971-1.617-0.111-0.028-0.223-0.041-0.323-0.040h-4v-2.667h4c0.736 0 1.333-0.597 1.333-1.333v-5.333c0-0.736-0.597-1.333-1.333-1.333z"></path>
</symbol>
    <!-- End Alt -->
    <symbol id="call" viewBox="0 0 32 32">
      <title>
        call
      </title>
      <path d="M28 22l-6 6-18-18 6-6 6 6-3 3 6 6 3-3 6 6z"/>
    </symbol>
    <symbol id="schedule" viewBox="0 0 32 32">
      <title>
        schedule
      </title>
      <path d="M24 8v-4h-4v4h-8v-4h-4v4h-4v20h24v-20h-4zM20 24h-4v-8h-4v-4h8v12z"/>
    </symbol>
    <symbol id="lock" viewBox="0 0 24 24">
      <title>
        lock
      </title>
      <path d="M19 10h-1v-3c0-3.3-2.7-6-6-6s-6 2.7-6 6v3h-1c-1.7 0-3 1.3-3 3v7c0 1.7 1.3 3 3 3h14c1.7 0 3-1.3 3-3v-7c0-1.7-1.3-3-3-3zM8 7c0-2.2 1.8-4 4-4s4 1.8 4 4v3h-8v-3zM20 20c0 0.6-0.4 1-1 1h-14c-0.6 0-1-0.4-1-1v-7c0-0.6 0.4-1 1-1h14c0.6 0 1 0.4 1 1v7z"/>
    </symbol>
    <symbol id="info" viewBox="0 0 24 24">
      <title>
        info
      </title>
      <path d="M21.171 15.398l-5.912-9.854c-0.776-1.293-1.963-2.033-3.259-2.033s-2.483 0.74-3.259 2.031l-5.912 9.856c-0.786 1.309-0.872 2.705-0.235 3.83 0.636 1.126 1.878 1.772 3.406 1.772h12c1.528 0 2.77-0.646 3.406-1.771 0.637-1.125 0.551-2.521-0.235-3.831zM12 8.449c0.854 0.002 1.549 0.698 1.551 1.55 0 0.853-0.695 1.549-1.55 1.551-0.854-0.002-1.55-0.698-1.552-1.55 0-0.855 0.696-1.551 1.551-1.551zM13.69 16.91c-0.032 0.037-0.795 0.918-2.068 0.918-0.051 0-0.103-0.001-0.154-0.004-0.508-0.030-0.928-0.255-1.185-0.634-0.315-0.465-0.358-1.113-0.121-1.825l0.406-1.221c0.225-0.683 0.010-0.792-0.106-0.85-0.031-0.016-0.080-0.025-0.14-0.025-0.251 0-0.597 0.148-0.708 0.206-0.104 0.054-0.235 0.026-0.311-0.067-0.073-0.095-0.071-0.227 0.007-0.318 0.033-0.039 0.867-0.995 2.223-0.914 0.505 0.029 0.925 0.253 1.182 0.631 0.316 0.465 0.36 1.114 0.124 1.828l-0.406 1.221c-0.227 0.682-0.010 0.792 0.106 0.85 0.020 0.010 0.062 0.023 0.137 0.023 0.254 0 0.6-0.148 0.712-0.205 0.106-0.056 0.235-0.026 0.31 0.068 0.072 0.095 0.070 0.227-0.008 0.318z"/>
    </symbol>
    <symbol id="external-link" viewBox="0 0 24 24">
      <title>
        external-link
      </title>
      <path d="M18 12c-0.6 0-1 0.4-1 1v6c0 0.6-0.4 1-1 1h-11c-0.6 0-1-0.4-1-1v-11c0-0.6 0.4-1 1-1h6c0.6 0 1-0.4 1-1s-0.4-1-1-1h-6c-1.7 0-3 1.3-3 3v11c0 1.7 1.3 3 3 3h11c1.7 0 3-1.3 3-3v-6c0-0.6-0.4-1-1-1z"/>
      <path d="M21.9 2.6c-0.1-0.2-0.3-0.4-0.5-0.5-0.1-0.1-0.3-0.1-0.4-0.1h-6c-0.6 0-1 0.4-1 1s0.4 1 1 1h3.6l-9.3 9.3c-0.4 0.4-0.4 1 0 1.4 0.2 0.2 0.4 0.3 0.7 0.3s0.5-0.1 0.7-0.3l9.3-9.3v3.6c0 0.6 0.4 1 1 1s1-0.4 1-1v-6c0-0.1 0-0.3-0.1-0.4z"/>
    </symbol>
    <symbol id="logout" viewBox="0 0 32 32">
    <title>logout</title>
    <path d="M5.313 6.688v18.625h10.688v2.688h-10.688q-1.063 0-1.844-0.813t-0.781-1.875v-18.625q0-1.063 0.781-1.875t1.844-0.813h10.688v2.688h-10.688zM22.688 9.313l6.625 6.688-6.625 6.688-1.875-1.938 3.438-3.438h-13.563v-2.625h13.563l-3.438-3.5z"></path>
    </symbol>
    <symbol id="grid" viewBox="0 0 32 32">
<title>grid</title>
<path d="M4 2.667c-0.736 0-1.333 0.597-1.333 1.333v9.333c0 0.736 0.597 1.333 1.333 1.333h9.333c0.736 0 1.333-0.597 1.333-1.333v-9.333c0-0.736-0.597-1.333-1.333-1.333zM5.333 5.333h6.667v6.667h-6.667zM18.667 2.667c-0.736 0-1.333 0.597-1.333 1.333v9.333c0 0.736 0.597 1.333 1.333 1.333h9.333c0.736 0 1.333-0.597 1.333-1.333v-9.333c0-0.736-0.597-1.333-1.333-1.333zM20 5.333h6.667v6.667h-6.667zM18.667 17.333c-0.736 0-1.333 0.597-1.333 1.333v9.333c0 0.736 0.597 1.333 1.333 1.333h9.333c0.736 0 1.333-0.597 1.333-1.333v-9.333c0-0.736-0.597-1.333-1.333-1.333zM20 20h6.667v6.667h-6.667zM4 17.333c-0.736 0-1.333 0.597-1.333 1.333v9.333c0 0.736 0.597 1.333 1.333 1.333h9.333c0.736 0 1.333-0.597 1.333-1.333v-9.333c0-0.736-0.597-1.333-1.333-1.333zM5.333 20h6.667v6.667h-6.667z"></path>
</symbol>
<symbol id="alert-octagon" viewBox="0 0 32 32">
<title>alert-octagon</title>
<path d="M10.48 1.333c-0.341 0-0.683 0.131-0.943 0.391l-7.813 7.813c-0.241 0.241-0.391 0.575-0.391 0.943v11.040c0 0.341 0.131 0.683 0.391 0.943l7.813 7.813c0.241 0.241 0.575 0.391 0.943 0.391h11.040c0.341 0 0.683-0.131 0.943-0.391l7.813-7.813c0.241-0.241 0.391-0.575 0.391-0.943v-11.040c0-0.341-0.131-0.683-0.391-0.943l-7.813-7.813c-0.241-0.241-0.575-0.391-0.943-0.391zM11.032 4h9.936l7.032 7.032v9.936l-7.032 7.032h-9.936l-7.032-7.032v-9.936zM14.667 10.667v5.333c0 0.736 0.597 1.333 1.333 1.333s1.333-0.597 1.333-1.333v-5.333c0-0.736-0.597-1.333-1.333-1.333s-1.333 0.597-1.333 1.333zM17.333 21.333c0-0.736-0.597-1.333-1.333-1.333s-1.333 0.597-1.333 1.333 0.597 1.333 1.333 1.333 1.333-0.597 1.333-1.333z"></path>
</symbol>
    <symbol id="accents" viewBox="0 0 49 11">
      <path fill="currentColor" d="M14.9932 11V8.15556H17.8243V11H14.9932Z"/>
      <path fill="currentColor" d="M14.9932 3.41409V0.569636H17.8243V3.41409H14.9932Z"/>
      <path fill="currentColor" d="M22.5435 11V8.15556H25.3746V11H22.5435Z"/>
      <path fill="currentColor" d="M22.5435 3.41409V0.569636H25.3746V3.41409H22.5435Z"/>
      <path fill="currentColor" d="M30.0938 11V8.15556H32.9249V11H30.0938Z"/>
      <path fill="currentColor" d="M30.0938 3.41409V0.569636H32.9249V3.41409H30.0938Z"/>
      <path fill="currentColor" d="M0 11L0 8.15556H2.83112V11H0Z"/>
      <path fill="currentColor" d="M0 3.41409L0 0.569636H2.83112V3.41409H0Z"/>
      <path fill="currentColor" d="M7.55029 11V8.15556H10.3815V11H7.55029Z"/>
      <path fill="currentColor" d="M7.55029 3.41409V0.569636H10.3815V3.41409H7.55029Z"/>
      <path fill="currentColor" d="M37.6445 11V8.15556H40.4757V11H37.6445Z"/>
      <path fill="currentColor" d="M37.6445 3.41409V0.569636H40.4757V3.41409H37.6445Z"/>
      <path fill="currentColor" d="M45.1948 11V8.15556H48.0259V11H45.1948Z"/>
    </symbol>
    <symbol id="accents-centered" viewBox="0 0 258 49">
      <path fill="currentColor" d="M104.64 35.45h13.15V48.6h-13.15z" transform="rotate(-90 111.215 42.025)"/>
      <path fill="currentColor" d="M104.64.38h13.15v13.15h-13.15z" transform="rotate(-90 111.215 6.955)"/>
      <path fill="currentColor" d="M139.71 35.45h13.15V48.6h-13.15z" transform="rotate(-90 146.285 42.025)"/>
      <path fill="currentColor" d="M139.71.38h13.15v13.15h-13.15z" transform="rotate(-90 146.285 6.955)"/>
      <path fill="currentColor" d="M174.78 35.45h13.15V48.6h-13.15z" transform="rotate(-90 181.355 42.025)"/>
      <path fill="currentColor" d="M174.78.38h13.15v13.15h-13.15z" transform="rotate(-90 181.355 6.955)"/>
      <path fill="currentColor" d="M35 35.45h13.15V48.6H35z" transform="rotate(-90 41.575 42.025)"/>
      <path fill="currentColor" d="M35 .38h13.15v13.15H35z" transform="rotate(-90 41.575 6.955)"/>
      <path fill="currentColor" d="M70.07 35.45h13.15V48.6H70.07z" transform="rotate(-90 76.645 42.025)"/>
      <path fill="currentColor" d="M0 35.45h13.15V48.6H0z" transform="rotate(-90 6.575 42.025)"/>
      <path fill="currentColor" d="M70.07.38h13.15v13.15H70.07z" transform="rotate(-90 76.645 6.955)"/>
      <path fill="currentColor" d="M209.85 35.45H223V48.6h-13.15z" transform="rotate(-90 216.425 42.025)"/>
      <path fill="currentColor" d="M209.85.38H223v13.15h-13.15z" transform="rotate(-90 216.425 6.955)"/>
      <path fill="currentColor" d="M244.92 35.45h13.15V48.6h-13.15z" transform="rotate(-90 251.495 42.025)"/>
    </symbol>
    <symbol id="logo" viewBox="0 0 158.068 77.971">
      <title>
        logo
      </title>
      <polygon fill="currentColor" points="0 35.97 18.083 18.012 36.042 35.97 0 35.97"/>
      <polygon fill="currentColor" points="22.75 14.012 45.125 35.971 72.068 35.971 36.083 0 22.75 14.012"/>
      <polygon fill="currentColor" points="58.75 14.012 81.125 35.971 108.068 35.971 72.083 0 58.75 14.012"/>
      <polygon fill="currentColor" points="158.068 42.001 139.984 59.959 122.026 42.001 158.068 42.001"/>
      <polygon fill="currentColor" points="135.318 63.959 112.943 42 86 42 121.984 77.971 135.318 63.959"/>
      <polygon fill="currentColor" points="99.318 63.959 76.943 42 50 42 85.984 77.971 99.318 63.959"/>
    </symbol>
    <symbol id="happy" viewBox="0 0 32 32">
      <title>
        happy
      </title>
      <path fill="currentColor" d="M16 32c8.837 0 16-7.163 16-16s-7.163-16-16-16-16 7.163-16 16 7.163 16 16 16zM16 3c7.18 0 13 5.82 13 13s-5.82 13-13 13-13-5.82-13-13 5.82-13 13-13zM16 18.711c3.623 0 7.070-0.963 10-2.654-0.455 5.576-4.785 9.942-10 9.942s-9.544-4.371-10-9.947c2.93 1.691 6.377 2.658 10 2.658zM8 11c0-1.657 0.895-3 2-3s2 1.343 2 3c0 1.657-0.895 3-2 3s-2-1.343-2-3zM20 11c0-1.657 0.895-3 2-3s2 1.343 2 3c0 1.657-0.895 3-2 3s-2-1.343-2-3z"/>
    </symbol>
    <symbol id="checkmark" viewBox="0 0 32 32">
<title>checkmark</title>
<path d="M16 0c-8.836 0-16 7.164-16 16s7.164 16 16 16 16-7.164 16-16-7.164-16-16-16zM13.52 23.383l-7.362-7.363 2.828-2.828 4.533 4.535 9.617-9.617 2.828 2.828-12.444 12.445z"></path>
</symbol>
<symbol id="checkmark-outline" viewBox="0 0 32 32">
<title>checkmark-outline</title>
<path d="M4.688 27.312c-3.014-2.914-4.885-6.993-4.885-11.509 0-8.837 7.163-16 16-16 4.516 0 8.595 1.871 11.504 4.88l0.004 0.005c2.779 2.874 4.491 6.795 4.491 11.115 0 8.837-7.163 16-16 16-4.32 0-8.241-1.712-11.12-4.496l0.005 0.004zM25.056 25.056c2.318-2.318 3.751-5.519 3.751-9.056 0-7.073-5.734-12.807-12.807-12.807-3.537 0-6.738 1.434-9.056 3.751v0c-2.318 2.318-3.751 5.519-3.751 9.056 0 7.073 5.734 12.807 12.807 12.807 3.537 0 6.738-1.433 9.056-3.751v0zM10.72 14.864l3.68 3.696 6.88-6.88 2.24 2.272-9.12 9.088-5.92-5.92 2.24-2.272z"></path>
</symbol>
    <symbol id="checked" viewBox="0 0 32 32">
      <title>
        checked
      </title>
      <path d="M26.5 27h-3c-0.276 0-0.5-0.224-0.5-0.5s0.224-0.5 0.5-0.5h2.5v-2.5c0-0.276 0.224-0.5 0.5-0.5 0.275 0 0.5 0.224 0.5 0.5v3c0 0.276-0.225 0.5-0.5 0.5zM26.5 21c-0.276 0-0.5-0.224-0.5-0.5v-3c0-0.276 0.224-0.5 0.5-0.5 0.275 0 0.5 0.224 0.5 0.5v3c0 0.276-0.225 0.5-0.5 0.5zM26.5 15c-0.276 0-0.5-0.224-0.5-0.5v-3c0-0.276 0.224-0.5 0.5-0.5 0.275 0 0.5 0.224 0.5 0.5v3c0 0.276-0.225 0.5-0.5 0.5zM26.5 9c-0.276 0-0.5-0.224-0.5-0.5v-2.5h-2.5c-0.276 0-0.5-0.224-0.5-0.5s0.224-0.5 0.5-0.5h3c0.275 0 0.5 0.224 0.5 0.5v3c0 0.276-0.225 0.5-0.5 0.5zM14.666 21.053c-0.184 0.185-0.483 0.185-0.668 0l-1.002-1.002c-0.002-0.003-0.001-0.007-0.003-0.009l-3.188-3.212c-0.185-0.184-0.185-0.483 0-0.668l1.002-1.003c0.185-0.185 0.484-0.185 0.669 0l2.86 2.881 6.014-6.013c0.184-0.185 0.483-0.185 0.668 0l1.002 1.003c0.186 0.185 0.186 0.484 0 0.669l-7.354 7.354zM20.5 6h-3c-0.276 0-0.5-0.224-0.5-0.5s0.224-0.5 0.5-0.5h3c0.275 0 0.5 0.224 0.5 0.5s-0.225 0.5-0.5 0.5zM14.5 6h-3c-0.276 0-0.5-0.224-0.5-0.5s0.224-0.5 0.5-0.5h3c0.275 0 0.5 0.224 0.5 0.5s-0.225 0.5-0.5 0.5zM8.5 27h-3c-0.276 0-0.5-0.224-0.5-0.5v-3c0-0.276 0.224-0.5 0.5-0.5s0.5 0.224 0.5 0.5v2.5h2.5c0.276 0 0.5 0.224 0.5 0.5s-0.224 0.5-0.5 0.5zM8.5 6h-2.5v2.5c0 0.276-0.224 0.5-0.5 0.5s-0.5-0.224-0.5-0.5v-3c0-0.276 0.224-0.5 0.5-0.5h3c0.276 0 0.5 0.224 0.5 0.5s-0.224 0.5-0.5 0.5zM5.5 11c0.276 0 0.5 0.224 0.5 0.5v3c0 0.276-0.224 0.5-0.5 0.5s-0.5-0.224-0.5-0.5v-3c0-0.276 0.224-0.5 0.5-0.5zM5.5 17c0.276 0 0.5 0.224 0.5 0.5v3c0 0.276-0.224 0.5-0.5 0.5s-0.5-0.224-0.5-0.5v-3c0-0.276 0.224-0.5 0.5-0.5zM11.5 26h3c0.275 0 0.5 0.224 0.5 0.5s-0.225 0.5-0.5 0.5h-3c-0.276 0-0.5-0.224-0.5-0.5s0.224-0.5 0.5-0.5zM17.5 26h3c0.275 0 0.5 0.224 0.5 0.5s-0.225 0.5-0.5 0.5h-3c-0.276 0-0.5-0.224-0.5-0.5s0.224-0.5 0.5-0.5z"/>
    </symbol>
    <symbol id="x" viewBox="0 0 48 48">
      <title>
        x
      </title>
      <path d="M26.8 24l10.6-10.6c0.8-0.8 0.8-2 0-2.8s-2-0.8-2.8 0l-10.6 10.6-10.6-10.6c-0.8-0.8-2-0.8-2.8 0s-0.8 2 0 2.8l10.6 10.6-10.6 10.6c-0.8 0.8-0.8 2 0 2.8 0.4 0.4 0.8 0.6 1.4 0.6s1-0.2 1.4-0.6l10.6-10.6 10.6 10.6c0.4 0.4 1 0.6 1.4 0.6s1-0.2 1.4-0.6c0.8-0.8 0.8-2 0-2.8l-10.6-10.6z"/>
    </symbol>
    <symbol id="badge" viewBox="0 0 22 32">
      <title>
        badge
      </title>
      <path d="M22 11c0-6.065-4.935-11-11-11s-11 4.935-11 11c0 3.577 1.724 6.75 4.375 8.761l-3.503 9.178c-0.063 0.166-0.034 0.354 0.077 0.492s0.283 0.21 0.464 0.181l3.859-0.575 2.563 2.802c0.097 0.103 0.231 0.161 0.37 0.161 0.031 0 0.062-0.003 0.094-0.009 0.17-0.032 0.312-0.151 0.373-0.312l2.667-6.987 2.667 6.987c0.062 0.161 0.203 0.28 0.373 0.312 0.031 0.006 0.062 0.009 0.094 0.009 0.139 0 0.273-0.058 0.369-0.162l2.563-2.802 3.859 0.575c0.18 0.026 0.354-0.044 0.465-0.182 0.111-0.14 0.14-0.327 0.075-0.493l-3.704-9.549c2.382-2.019 3.9-5.027 3.9-8.387zM1 11c0-5.514 4.486-10 10-10s10 4.486 10 10-4.486 10-10 10-10-4.486-10-10zM10 22.142l0.621 1.148-2.685 7.274-2.151-2.4c-0.112-0.121-0.248-0.181-0.421-0.156l-3.264 0.488 3.117-8.153c1.494 0.927 3.042 1.503 4.896 1.621l-0.113 0.174c0 0.001 0 0.003 0 0.004zM20.562 28.496l-3.271-0.488c-0.171-0.025-0.331 0.035-0.443 0.156l-2.196 2.4-3.276-8.583c2.188-0.074 4.215-0.783 5.9-1.959l3.286 8.474z"/>
      <path d="M16.5 11c0-3.032-2.468-5.5-5.5-5.5s-5.5 2.468-5.5 5.5 2.468 5.5 5.5 5.5 5.5-2.468 5.5-5.5zM6.5 11c0-2.481 2.019-4.5 4.5-4.5s4.5 2.019 4.5 4.5-2.019 4.5-4.5 4.5-4.5-2.019-4.5-4.5z"/>
    </symbol>
    <symbol id="previous" viewBox="0 0 32 32">
      <title>
        previous
      </title>
      <path d="M16.943 24.391l-7.057-7.057h15.448c0.736 0 1.333-0.597 1.333-1.333s-0.597-1.333-1.333-1.333h-15.448l7.057-7.057c0.521-0.521 0.521-1.365 0-1.885s-1.365-0.521-1.885 0l-9.333 9.333c-0.128 0.128-0.224 0.275-0.289 0.432-0.135 0.327-0.135 0.696 0 1.023 0.064 0.155 0.159 0.299 0.283 0.425 0.003 0.003 0.004 0.004 0.007 0.007l9.333 9.333c0.521 0.521 1.365 0.521 1.885 0s0.521-1.365 0-1.885z"/>
    </symbol>
    <symbol id="arrow-left" viewBox="0 0 32 32">
      <title>
        arrow-left
      </title>
      <path d="M24 14.667h-9.659l2.115-2.115c1.041-1.041 1.041-2.732 0-3.771-1.041-1.041-2.729-1.041-3.771 0l-8.552 8.552 8.552 8.552c0.52 0.521 1.203 0.781 1.885 0.781s1.364-0.26 1.885-0.781c1.041-1.041 1.041-2.732 0-3.771l-2.115-2.115h9.659c1.472 0 2.667-1.195 2.667-2.667 0-1.473-1.195-2.667-2.667-2.667z"/>
    </symbol>
    <symbol id="chevron-right" viewBox="8 7 18 18">
      <title>
        chevron-right
      </title>
      <path d="M14 22.667c-0.002 0-0.005 0-0.008 0-0.366 0-0.698-0.148-0.939-0.387l0 0c-0.244-0.242-0.394-0.577-0.394-0.947s0.151-0.705 0.394-0.947l0-0 4.413-4.387-4.24-4.413c-0.24-0.241-0.388-0.573-0.388-0.94s0.148-0.699 0.388-0.94l-0 0c0.242-0.244 0.577-0.394 0.947-0.394s0.705 0.151 0.947 0.394l0 0 5.147 5.333c0.236 0.24 0.381 0.57 0.381 0.933s-0.145 0.693-0.381 0.934l-5.333 5.333c-0.234 0.253-0.564 0.414-0.931 0.427l-0.002 0z"/>
    </symbol>
    <symbol id="chevron-down" viewBox="0 0 32 32">
      <title>
        chevron-down
      </title>
      <path d="M7.057 12.943l8 8c0.521 0.521 1.365 0.521 1.885 0l8-8c0.521-0.521 0.521-1.365 0-1.885s-1.365-0.521-1.885 0l-7.057 7.057-7.057-7.057c-0.521-0.521-1.365-0.521-1.885 0s-0.521 1.365 0 1.885z"/>
    </symbol>
    <symbol id="forward-outline" viewBox="0 0 32 32">
      <title>
        forward-outline
      </title>
      <path d="M13.333 25.333c-0.001 0-0.002 0-0.003 0-0.324 0-0.622-0.116-0.853-0.308l0.002 0.002c-0.296-0.246-0.482-0.615-0.482-1.026 0-0.326 0.117-0.624 0.311-0.856l-0.002 0.002 5.973-7.147-5.76-7.16c-0.186-0.227-0.298-0.521-0.298-0.841 0-0.419 0.193-0.793 0.496-1.037l0.003-0.002c0.234-0.206 0.543-0.332 0.881-0.332 0.434 0 0.82 0.208 1.063 0.529l0.002 0.003 6.44 8c0.189 0.228 0.303 0.524 0.303 0.847s-0.115 0.618-0.305 0.849l0.002-0.002-6.667 8c-0.246 0.296-0.615 0.482-1.027 0.482-0.028 0-0.056-0.001-0.084-0.003l0.004 0z"/>
    </symbol>
    <symbol id="tools" viewBox="0 0 31 32">
      <title>
        tools
      </title>
      <path fill="currentColor" d="M0.211 5.646c-0.847 0.848-0.666 2.042 0.008 2.715 0.027 0.026 2.734 2.612 6.541 6.419 0.098 0.098 0.226 0.146 0.354 0.146s0.256-0.049 0.354-0.146c0.195-0.195 0.195-0.512 0-0.707-0.574-0.574-1.12-1.117-1.638-1.631l1.589-1.589c0.195-0.195 0.195-0.512 0-0.707s-0.512-0.195-0.707 0l-1.593 1.593c-0.891-0.88-1.676-1.648-2.315-2.271l3.615-3.615c0.195-0.195 0.195-0.512 0-0.707s-0.512-0.195-0.707 0l-3.626 3.626c-0.736-0.713-1.16-1.118-1.167-1.125-0.211-0.211-0.488-0.805 0-1.293l5-5c0.193-0.196 0.707-0.585 1.271-0.024 0.025 0.028 2.55 2.896 6.404 6.75 0.195 0.195 0.512 0.195 0.707 0s0.195-0.512 0-0.707c-3.83-3.829-6.336-6.675-6.382-6.727-0.932-0.93-2.056-0.651-2.707 0l-5.001 5zM21.419 24.146c-0.195-0.195-0.512-0.195-0.707 0l-1.591 1.59c-0.485-0.491-0.994-1.005-1.53-1.541-0.195-0.195-0.512-0.195-0.707 0s-0.195 0.512 0 0.707c3.704 3.703 6.291 6.469 6.328 6.509 0.343 0.344 0.813 0.533 1.323 0.533v0c0.525 0 1.056-0.205 1.385-0.535l4.998-5.057c0.629-0.629 0.665-1.696 0.078-2.285l-6.706-6.705c-0.195-0.195-0.512-0.195-0.707 0s-0.195 0.512 0 0.707l6.706 6.705c0.2 0.2 0.162 0.632-0.079 0.873l-4.999 5.057c-0.115 0.116-0.376 0.24-0.676 0.24 0 0 0 0 0 0-0.172 0-0.418-0.042-0.604-0.229-0.010-0.011-0.429-0.458-1.156-1.219l3.644-3.644c0.195-0.195 0.195-0.512 0-0.707s-0.512-0.195-0.707 0l-3.629 3.629c-0.624-0.649-1.389-1.438-2.26-2.326l1.596-1.596c0.195-0.194 0.195-0.51 0-0.706zM-0.293 31.829c0.096 0.098 0.225 0.15 0.358 0.15 0.048 0 0.096-0.007 0.143-0.021l10-2.979c0.081-0.024 0.153-0.067 0.212-0.127l17.090-17.205c0.024-0.024 0.036-0.055 0.054-0.082l3.656-3.656c0.294-0.295 0.457-0.686 0.457-1.103s-0.163-0.807-0.457-1.1l-5.235-5.234c-0.588-0.588-1.615-0.588-2.203 0l-3.739 3.739c-0.024 0.024-0.037 0.055-0.055 0.083l-17.116 17.117c-0.056 0.056-0.098 0.124-0.122 0.199l-3.16 9.715c-0.058 0.177-0.013 0.37 0.117 0.504zM20.425 5.271l1.039 1.039-15.523 15.565-1.727-0.392 16.211-16.212zM6.565 22.666l15.607-15.648 2.436 2.436-15.748 15.546h-2.295v-2.334zM26.449 11.296l-16.244 16.354-0.577-2.002 15.687-15.487 1.134 1.135zM3.558 22.359l2.007 0.456v2.685c0 0.276 0.224 0.5 0.5 0.5h2.624l0.634 2.2-8.488 2.529 2.723-8.37zM24.49 1.179c0.211-0.211 0.578-0.211 0.789 0l5.235 5.235c0.105 0.105 0.163 0.245 0.163 0.394 0 0.148-0.058 0.289-0.164 0.395l-3.371 3.372-6.023-6.023 3.371-3.373z"/>
    </symbol>
    <symbol id="use" viewBox="0 0 32 32">
      <title>
        use
      </title>
      <path d="M22 21h-4v-4l4-4v-6l-4-4h-4l-4 4v6l4 4v4h-4l-4 4v7h20v-7z"/>
    </symbol>
    <symbol id="users" viewBox="0 0 24 24">
      <title>
        users
      </title>
      <path d="M13 14h-8c-2.8 0-5 2.2-5 5v2c0 0.6 0.4 1 1 1s1-0.4 1-1v-2c0-1.7 1.3-3 3-3h8c1.7 0 3 1.3 3 3v2c0 0.6 0.4 1 1 1s1-0.4 1-1v-2c0-2.8-2.2-5-5-5z"/>
      <path d="M9 12c2.8 0 5-2.2 5-5s-2.2-5-5-5-5 2.2-5 5 2.2 5 5 5zM9 4c1.7 0 3 1.3 3 3s-1.3 3-3 3-3-1.3-3-3 1.3-3 3-3z"/>
      <path d="M20.2 14.2c-0.5-0.1-1.1 0.2-1.2 0.7s0.2 1.1 0.7 1.2c1.3 0.3 2.2 1.5 2.2 2.9v2c0 0.6 0.4 1 1 1s1-0.4 1-1v-2c0.1-2.3-1.4-4.3-3.7-4.8z"/>
      <path d="M16.2 2.2c-0.5-0.2-1 0.1-1.2 0.7-0.1 0.5 0.2 1.1 0.7 1.2 1.6 0.4 2.6 2 2.2 3.7-0.3 1.1-1.1 1.9-2.2 2.2-0.5 0.1-0.9 0.7-0.7 1.2 0.1 0.5 0.5 0.8 1 0.8 0.1 0 0.2 0 0.2 0 1.8-0.5 3.2-1.8 3.6-3.6 0.7-2.8-0.9-5.6-3.6-6.2z"/>
    </symbol>
    <symbol id="gift" viewBox="0 0 24 24">
      <title>
        gift
      </title>
      <path d="M22 6h-2.4c0.3-0.5 0.4-1 0.4-1.5 0-1.9-1.6-3.5-3.5-3.5-2.3 0-3.7 1.6-4.5 3.1-0.8-1.5-2.2-3.1-4.5-3.1-1.9 0-3.5 1.6-3.5 3.5 0 0.5 0.1 1 0.4 1.5h-2.4c-0.6 0-1 0.4-1 1v5c0 0.6 0.4 1 1 1h1v9c0 0.6 0.4 1 1 1h16c0.6 0 1-0.4 1-1v-9h1c0.6 0 1-0.4 1-1v-5c0-0.6-0.4-1-1-1zM16.5 3c0.8 0 1.5 0.7 1.5 1.5s-0.7 1.5-1.5 1.5h-3.2c0.5-1.2 1.5-3 3.2-3zM6 4.5c0-0.8 0.7-1.5 1.5-1.5 1.7 0 2.7 1.8 3.2 3h-3.2c-0.8 0-1.5-0.7-1.5-1.5zM3 8h8v3h-8v-3zM5 13h6v8h-6v-8zM19 21h-6v-8h6v8zM21 11h-8v-3h8v3z"/>
    </symbol>
    <symbol id="lines" preserveAspectRatio="none" viewBox="-1 0 514 55">
      <title>
        lines
      </title>
      <path fill="white" stroke="currentColor" stroke-linecap="square" stroke-miterlimit="1.5" stroke-width="0.5px" d="M.5.5V51.8L43.2,30.3,85.5,51.8,128,30.5l42.5,21.3L213,30.5l42.8,21.3L298,30.5l42.5,21.3L383,30.5l42.5,21.3L468,30.5l43.2,21.3V.5" style="filter:drop-shadow(1px 1px 5px rgba(0,0,0,.1))"/>
    </symbol>
    <symbol id="alert-circle" viewBox="0 0 32 32">
      <title>
        alert-circle
      </title>
      <path d="M16 2.667c-7.364 0-13.333 5.97-13.333 13.333s5.97 13.333 13.333 13.333c7.364 0 13.333-5.97 13.333-13.333v0c0-7.364-5.97-13.333-13.333-13.333v0zM16 26.667c-5.891 0-10.667-4.776-10.667-10.667s4.776-10.667 10.667-10.667c5.891 0 10.667 4.776 10.667 10.667v0c0 5.891-4.776 10.667-10.667 10.667v0z"/>
      <path d="M17.333 21.333c0 0.736-0.597 1.333-1.333 1.333s-1.333-0.597-1.333-1.333c0-0.736 0.597-1.333 1.333-1.333s1.333 0.597 1.333 1.333z"/>
      <path d="M16 9.333c-0.736 0-1.333 0.597-1.333 1.333v0 6.667c0 0.736 0.597 1.333 1.333 1.333s1.333-0.597 1.333-1.333v0-6.667c0-0.736-0.597-1.333-1.333-1.333v0z"/>
    </symbol>
    <symbol id="dot" viewBox="0 0 32 32">
      <title>
        dot
      </title>
      <circle rx="16" ry="16" r="20"/>
    </symbol>
    <symbol id="briefcase" viewBox="0 0 32 32">
      <title>
        briefcase
      </title>
      <path d="M9.333 28h13.333v-18.667h-1.333v-2c0-1.841-1.492-3.333-3.333-3.333v0h-4c-1.841 0-3.333 1.492-3.333 3.333v0 2h-1.333zM13.333 7.333c0-0.368 0.298-0.667 0.667-0.667v0h4c0.368 0 0.667 0.298 0.667 0.667v0 2h-5.333z"/>
      <path d="M25.333 9.333v18.667c2.209 0 4-1.791 4-4v0-10.667c0-2.209-1.791-4-4-4v0z"/>
      <path d="M6.667 9.333c-2.209 0-4 1.791-4 4v0 10.667c0 2.209 1.791 4 4 4v0z"/>
    </symbol>
    <symbol id="briefcase-outline" viewBox="0 0 38 32">
      <title>
        briefcase-outline
      </title>
      <path d="M37.5 18c-0.276 0-0.5 0.224-0.5 0.5v12c0 0.276-0.224 0.5-0.5 0.5h-35c-0.276 0-0.5-0.224-0.5-0.5v-12c0-0.276-0.224-0.5-0.5-0.5s-0.5 0.224-0.5 0.5v12c0 0.827 0.673 1.5 1.5 1.5h35c0.827 0 1.5-0.673 1.5-1.5v-12c0-0.276-0.224-0.5-0.5-0.5zM25.5 5c0.276 0 0.5-0.224 0.5-0.5v-3c0-0.827-0.673-1.5-1.5-1.5h-11c-0.827 0-1.5 0.673-1.5 1.5v3c0 0.276 0.224 0.5 0.5 0.5s0.5-0.224 0.5-0.5v-3c0-0.276 0.224-0.5 0.5-0.5h11c0.276 0 0.5 0.224 0.5 0.5v3c0 0.276 0.224 0.5 0.5 0.5zM36.5 7h-35c-0.827 0-1.5 0.673-1.5 1.5v4.958c0 2.778 9.456 6.5 19.125 6.5 9.543 0 18.875-3.722 18.875-6.5v-4.958c0-0.827-0.673-1.5-1.5-1.5zM37 13.458c0 1.764-8.457 5.5-17.875 5.5-9.55 0-18.125-3.735-18.125-5.5v-4.958c0-0.276 0.224-0.5 0.5-0.5h35c0.276 0 0.5 0.224 0.5 0.5v4.958zM19.125 23c0.943 0 1.923-0.039 2.914-0.116 0.275-0.021 0.481-0.262 0.459-0.538-0.021-0.275-0.252-0.486-0.538-0.459-2.014 0.157-3.909 0.15-5.919-0.020-0.264-0.027-0.517 0.181-0.54 0.456s0.181 0.517 0.456 0.54c1.076 0.091 2.142 0.137 3.168 0.137z"/>
    </symbol>
    <symbol id="wallet" viewBox="0 0 38 32">
      <title>
        wallet
      </title>
      <path d="M32.509 7.5c0.276 0 0.5-0.224 0.5-0.5v-1.665c0-0.903-0.735-1.638-1.638-1.638h-2.687l-0.613-1.809c-0.086-0.255-0.36-0.397-0.619-0.318l-14.553 4.424c-0.264 0.081-0.413 0.36-0.333 0.624 0.066 0.216 0.264 0.354 0.479 0.354 0.048 0 0.097-0.007 0.146-0.021l14.089-4.284 1.343 3.965c0.089 0.262 0.375 0.404 0.634 0.313 0.262-0.088 0.402-0.373 0.313-0.634l-0.547-1.615h2.349c0.352 0 0.638 0.286 0.638 0.638v1.666c-0.001 0.276 0.223 0.5 0.499 0.5zM36.5 15c-0.276 0-0.5 0.224-0.5 0.5s0.224 0.5 0.5 0.5c0.351 0 0.5 0.149 0.5 0.5v6c0 0.351-0.149 0.5-0.5 0.5h-8c-0.351 0-0.5-0.149-0.5-0.5v-5c0-0.351 0.149-0.5 0.5-0.5h6c0.276 0 0.5-0.224 0.5-0.5v-6c0-0.911-0.589-1.5-1.5-1.5h-30.5c-1.233 0-2-0.767-2-2s0.767-2 2-2h5.076l-3.026 0.998c-0.262 0.086-0.405 0.369-0.319 0.631 0.069 0.21 0.265 0.343 0.475 0.343 0.052 0 0.104-0.008 0.157-0.025l18.119-5.973c0.262-0.087 0.405-0.369 0.318-0.632-0.086-0.262-0.369-0.405-0.632-0.318l-12.1 3.99c-0.023-0.004-0.044-0.014-0.068-0.014h-8c-1.794 0-3 1.206-3 3v22c0 1.794 1.206 3 3 3h30.5c0.911 0 1.5-0.589 1.5-1.5v-5c0-0.276-0.224-0.5-0.5-0.5s-0.5 0.224-0.5 0.5v5c0 0.351-0.149 0.5-0.5 0.5h-30.5c-1.233 0-2-0.767-2-2v-19.688c0.513 0.433 1.192 0.688 2 0.688h30.5c0.351 0 0.5 0.149 0.5 0.5v5.5h-5.5c-0.911 0-1.5 0.589-1.5 1.5v5c0 0.911 0.589 1.5 1.5 1.5h8c0.911 0 1.5-0.589 1.5-1.5v-6c0-0.911-0.589-1.5-1.5-1.5zM31 20c0 0.552 0.448 1 1 1s1-0.448 1-1c0-0.552-0.448-1-1-1s-1 0.448-1 1z"/>
    </symbol>
    <symbol id="search" viewBox="0 0 33 32">
      <title>
        search
      </title>
      <path d="M1.5 32h21c0.827 0 1.5-0.673 1.5-1.5v-7.5c0-0.010-0.005-0.018-0.006-0.028 0.055-0.035 0.112-0.068 0.166-0.105l7.986 7.986c0.098 0.098 0.226 0.147 0.354 0.147s0.256-0.049 0.354-0.146c0.195-0.195 0.195-0.512 0-0.707l-7.913-7.913c1.264-1.187 2.059-2.868 2.059-4.734 0-2.297-1.201-4.316-3.006-5.472 0.001-0.010 0.006-0.018 0.006-0.028v-2.5c0-0.017-0.008-0.031-0.009-0.047-0.002-0.023-0.008-0.043-0.013-0.065-0.017-0.071-0.046-0.135-0.090-0.191-0.007-0.009-0.006-0.020-0.013-0.029l-8-9c-0.003-0.003-0.007-0.003-0.010-0.006-0.060-0.065-0.137-0.108-0.223-0.134-0.019-0.006-0.036-0.008-0.056-0.011-0.029-0.005-0.056-0.017-0.086-0.017h-14c-0.827 0-1.5 0.673-1.5 1.5v29c0 0.827 0.673 1.5 1.5 1.5zM26 17.5c0 3.033-2.468 5.5-5.5 5.5s-5.5-2.467-5.5-5.5 2.468-5.5 5.5-5.5 5.5 2.467 5.5 5.5zM16 1.815l6.387 7.185h-5.887c-0.22 0-0.5-0.42-0.5-0.75v-6.435zM1 1.5c0-0.276 0.225-0.5 0.5-0.5h13.5v7.25c0 0.809 0.655 1.75 1.5 1.75h6.5v1.501c-0.77-0.322-1.614-0.501-2.5-0.501-1.838 0-3.496 0.77-4.679 2h-10.321c-0.276 0-0.5 0.224-0.5 0.5s0.224 0.5 0.5 0.5h9.532c-0.565 0.879-0.922 1.901-1.006 3h-8.526c-0.276 0-0.5 0.224-0.5 0.5s0.224 0.5 0.5 0.5h8.525c0.084 1.099 0.442 2.121 1.006 3h-9.531c-0.276 0-0.5 0.224-0.5 0.5s0.224 0.5 0.5 0.5h10.25c0.021 0 0.039-0.009 0.060-0.012 1.184 1.237 2.847 2.012 4.69 2.012 0.886 0 1.73-0.179 2.5-0.502v7.002c0 0.276-0.225 0.5-0.5 0.5h-21c-0.28 0-0.5-0.22-0.5-0.5v-29zM5.5 10h6c0.276 0 0.5-0.224 0.5-0.5s-0.224-0.5-0.5-0.5h-6c-0.276 0-0.5 0.224-0.5 0.5s0.224 0.5 0.5 0.5zM5.5 26h13c0.276 0 0.5-0.224 0.5-0.5s-0.224-0.5-0.5-0.5h-13c-0.276 0-0.5 0.224-0.5 0.5s0.224 0.5 0.5 0.5z"/>
    </symbol>
    <symbol id="employer" viewBox="0 0 32 32">
      <title>
        employer
      </title>
      <path d="M12 8v-1.333c0-0.183 0.036-0.355 0.1-0.509 0.067-0.163 0.167-0.309 0.291-0.433s0.271-0.223 0.433-0.291c0.155-0.064 0.327-0.1 0.509-0.1h5.333c0.183 0 0.355 0.036 0.509 0.1 0.163 0.067 0.309 0.167 0.433 0.291s0.223 0.271 0.291 0.433c0.064 0.155 0.1 0.327 0.1 0.509v1.333zM12 26.667v-16h8v16zM9.333 10.667v16h-4c-0.183 0-0.355-0.036-0.509-0.1-0.163-0.067-0.309-0.167-0.433-0.291s-0.223-0.271-0.291-0.433c-0.064-0.155-0.1-0.327-0.1-0.509v-13.333c0-0.183 0.036-0.355 0.1-0.509 0.067-0.163 0.167-0.309 0.291-0.433s0.271-0.223 0.433-0.291c0.155-0.064 0.327-0.1 0.509-0.1zM22.667 8v-1.333c0-0.54-0.108-1.057-0.304-1.531-0.203-0.491-0.5-0.931-0.868-1.299s-0.808-0.665-1.299-0.868c-0.472-0.195-0.989-0.303-1.529-0.303h-5.333c-0.54 0-1.057 0.108-1.531 0.304-0.489 0.203-0.929 0.5-1.297 0.868s-0.665 0.808-0.868 1.297c-0.196 0.473-0.304 0.991-0.304 1.531v1.333h-4c-0.54 0-1.057 0.108-1.531 0.304-0.489 0.203-0.929 0.5-1.297 0.868s-0.665 0.808-0.868 1.297c-0.196 0.473-0.304 0.991-0.304 1.531v13.333c0 0.54 0.108 1.057 0.304 1.531 0.203 0.491 0.5 0.931 0.868 1.299s0.808 0.665 1.299 0.868c0.472 0.195 0.989 0.303 1.529 0.303h21.333c0.54 0 1.057-0.108 1.531-0.304 0.491-0.203 0.931-0.5 1.299-0.868s0.665-0.808 0.868-1.299c0.195-0.472 0.303-0.989 0.303-1.529v-13.333c0-0.54-0.108-1.057-0.304-1.531-0.203-0.491-0.5-0.931-0.868-1.299s-0.808-0.665-1.299-0.868c-0.472-0.195-0.989-0.303-1.529-0.303zM22.667 26.667v-16h4c0.183 0 0.355 0.036 0.509 0.1 0.163 0.067 0.309 0.167 0.433 0.291s0.223 0.271 0.291 0.433c0.064 0.155 0.1 0.327 0.1 0.509v13.333c0 0.183-0.036 0.355-0.1 0.509-0.067 0.163-0.167 0.309-0.291 0.433s-0.271 0.223-0.433 0.291c-0.155 0.064-0.327 0.1-0.509 0.1z"/>
    </symbol>
    <symbol id="calendar" viewBox="0 0 32 32">
      <title>
        calendar
      </title>
      <path d="M9.333 2.667v1.333h-2.667c-0.54 0-1.057 0.108-1.531 0.304-0.489 0.203-0.929 0.5-1.297 0.868s-0.665 0.808-0.868 1.297c-0.196 0.473-0.304 0.991-0.304 1.531v18.667c0 0.54 0.108 1.057 0.304 1.531 0.203 0.491 0.5 0.931 0.868 1.299s0.808 0.665 1.299 0.868c0.472 0.195 0.989 0.303 1.529 0.303h18.667c0.54 0 1.057-0.108 1.531-0.304 0.491-0.203 0.931-0.5 1.299-0.868s0.665-0.808 0.868-1.299c0.195-0.472 0.303-0.989 0.303-1.529v-18.667c0-0.54-0.108-1.057-0.304-1.531-0.203-0.491-0.5-0.931-0.868-1.299s-0.808-0.665-1.299-0.868c-0.472-0.195-0.989-0.303-1.529-0.303h-2.667v-1.333c0-0.736-0.597-1.333-1.333-1.333s-1.333 0.597-1.333 1.333v1.333h-8v-1.333c0-0.736-0.597-1.333-1.333-1.333s-1.333 0.597-1.333 1.333zM26.667 12h-21.333v-4c0-0.183 0.036-0.355 0.1-0.509 0.067-0.163 0.167-0.309 0.291-0.433s0.271-0.223 0.433-0.291c0.155-0.064 0.327-0.1 0.509-0.1h2.667v1.333c0 0.736 0.597 1.333 1.333 1.333s1.333-0.597 1.333-1.333v-1.333h8v1.333c0 0.736 0.597 1.333 1.333 1.333s1.333-0.597 1.333-1.333v-1.333h2.667c0.183 0 0.355 0.036 0.509 0.1 0.163 0.067 0.309 0.167 0.433 0.291s0.223 0.271 0.291 0.433c0.064 0.155 0.1 0.327 0.1 0.509zM5.333 14.667h21.333v12c0 0.183-0.036 0.355-0.1 0.509-0.067 0.163-0.167 0.309-0.291 0.433s-0.271 0.223-0.433 0.291c-0.155 0.064-0.327 0.1-0.509 0.1h-18.667c-0.183 0-0.355-0.036-0.509-0.1-0.163-0.067-0.309-0.167-0.433-0.291s-0.223-0.271-0.291-0.433c-0.064-0.155-0.1-0.327-0.1-0.509z"/>
    </symbol>
    <symbol id="money" viewBox="0 0 32 32">
      <title>
        money
      </title>
      <path d="M16 20c0-1.105 0.895-2 2-2s2 0.895 2 2c0 1.105-0.895 2-2 2s-2-0.895-2-2zM29.001 13c-0.001 0-0.001 0 0 0l-0.001-6v-3c0-1.657-1.344-3-3-3h-20.5c-3.033 0-5.5 2.468-5.5 5.5v20c0 3.032 2.467 5.5 5.5 5.5h18c3.032 0 5.5-2.468 5.5-5.5v-1.5c0 0 0 0 0.001 0 3.998-3.001 3.998-8.999 0-12zM5.5 3h20.5c0.551 0 1 0.448 1 1v6.184c-0.314-0.112-0.648-0.184-1-0.184h-0.001v-5c0-0.553-0.448-1-1-1h-21c-0.552 0-1 0.447-1 1v3.943c-0.617-0.631-0.999-1.491-0.999-2.443 0-1.933 1.566-3.5 3.5-3.5zM24.999 6h-21v-1h21v1zM24.999 7v1h-21v-1h21zM24.999 9v1h-19.499c-0.54 0-1.044-0.132-1.5-0.35v-0.65h20.999zM27 26.5c0 1.933-1.567 3.5-3.5 3.5h-18c-1.934 0-3.5-1.567-3.5-3.5v-15.761c0.951 0.787 2.171 1.261 3.5 1.261h20.5c0.551 0 1 0.448 1 1v2h-9c-2.762 0-5 2.238-5 5s2.239 5 5 5h9v1.5zM28.277 23h-10.277c-1.654 0-3-1.346-3-3s1.346-3 3-3h9c0.617-0.008 1.229-0.307 1.602-0.804 0.104-0.14 0.185-0.297 0.25-0.461 0.009-0.022 0.025-0.039 0.033-0.062 0.719 0.943 1.115 2.099 1.115 3.327 0 1.538-0.621 2.965-1.723 4z"/>
    </symbol>
    <symbol id="close-outline" viewBox="0 0 32 32">
      <title>
        close-outline
      </title>
      <path d="M17.88 16l5.733-5.72c0.242-0.242 0.392-0.577 0.392-0.947 0-0.739-0.599-1.339-1.339-1.339-0.37 0-0.704 0.15-0.947 0.392v0l-5.72 5.733-5.72-5.733c-0.242-0.242-0.577-0.392-0.947-0.392-0.739 0-1.339 0.599-1.339 1.339 0 0.37 0.15 0.704 0.392 0.947v0l5.733 5.72-5.733 5.72c-0.244 0.242-0.394 0.577-0.394 0.947s0.151 0.705 0.394 0.947l0 0c0.242 0.244 0.577 0.394 0.947 0.394s0.705-0.151 0.947-0.394l0-0 5.72-5.733 5.72 5.733c0.242 0.244 0.577 0.394 0.947 0.394s0.705-0.151 0.947-0.394l0-0c0.244-0.242 0.394-0.577 0.394-0.947s-0.151-0.705-0.394-0.947l-0-0z"/>
    </symbol>
    <symbol id="close" viewBox="0 0 32 32">
      <title>
        close
      </title>
      <path d="M4.688 27.312c-3.014-2.914-4.885-6.993-4.885-11.509 0-8.837 7.163-16 16-16 4.516 0 8.595 1.871 11.504 4.88l0.004 0.005c2.779 2.874 4.491 6.795 4.491 11.115 0 8.837-7.163 16-16 16-4.32 0-8.241-1.712-11.12-4.496l0.005 0.004zM18.24 16l4.528-4.528-2.256-2.256-4.512 4.528-4.528-4.528-2.256 2.256 4.528 4.528-4.528 4.528 2.256 2.256 4.528-4.528 4.528 4.528 2.256-2.256-4.528-4.528z"/>
    </symbol>
    <symbol id="plus-outline" viewBox="0 0 32 32">
      <title>
        plus-outline
      </title>
      <path d="M25.333 14.667h-8v-8c0-0.736-0.597-1.333-1.333-1.333s-1.333 0.597-1.333 1.333v0 8h-8c-0.736 0-1.333 0.597-1.333 1.333s0.597 1.333 1.333 1.333v0h8v8c0 0.736 0.597 1.333 1.333 1.333s1.333-0.597 1.333-1.333v0-8h8c0.736 0 1.333-0.597 1.333-1.333s-0.597-1.333-1.333-1.333v0z"/>
    </symbol>
    <symbol id="home" viewBox="0 0 32 32">
      <title>
        home
      </title>
      <path d="M3.181 10.948c-0.315 0.245-0.515 0.625-0.515 1.052v14.667c0 0.54 0.108 1.057 0.304 1.531 0.203 0.491 0.5 0.931 0.868 1.299s0.808 0.665 1.299 0.868c0.472 0.195 0.989 0.303 1.529 0.303h18.667c0.54 0 1.057-0.108 1.531-0.304 0.491-0.203 0.931-0.5 1.299-0.868s0.665-0.808 0.868-1.299c0.195-0.472 0.303-0.989 0.303-1.529v-14.667c-0.001-0.4-0.179-0.791-0.515-1.052l-12-9.333c-0.477-0.367-1.148-0.38-1.637 0zM21.333 28v-12c0-0.736-0.597-1.333-1.333-1.333h-8c-0.736 0-1.333 0.597-1.333 1.333v12h-4c-0.183 0-0.355-0.036-0.509-0.1-0.163-0.067-0.309-0.167-0.433-0.291s-0.223-0.271-0.291-0.433c-0.064-0.155-0.1-0.327-0.1-0.509v-14.015l10.667-8.296 10.667 8.296v14.015c0 0.183-0.036 0.355-0.1 0.509-0.067 0.163-0.167 0.309-0.291 0.433s-0.271 0.223-0.433 0.291c-0.155 0.064-0.327 0.1-0.509 0.1zM13.333 28v-10.667h5.333v10.667z"/>
    </symbol>
    <symbol id="pros" viewBox="0 0 32 32">
      <title>
        pros
      </title>
      <path d="M24 28v-2.667c0-0.9-0.179-1.763-0.505-2.549-0.339-0.817-0.833-1.551-1.447-2.164s-1.348-1.109-2.164-1.447c-0.788-0.328-1.651-0.507-2.551-0.507h-10.667c-0.9 0-1.763 0.179-2.549 0.505-0.817 0.339-1.551 0.833-2.164 1.447s-1.109 1.348-1.447 2.164c-0.328 0.788-0.507 1.651-0.507 2.551v2.667c0 0.736 0.597 1.333 1.333 1.333s1.333-0.597 1.333-1.333v-2.667c0-0.544 0.108-1.060 0.303-1.529 0.203-0.488 0.5-0.929 0.869-1.299s0.811-0.667 1.299-0.869c0.469-0.195 0.985-0.303 1.529-0.303h10.667c0.544 0 1.060 0.108 1.529 0.303 0.488 0.203 0.929 0.5 1.299 0.869s0.667 0.811 0.869 1.299c0.195 0.469 0.303 0.985 0.303 1.529v2.667c0 0.736 0.597 1.333 1.333 1.333s1.333-0.597 1.333-1.333zM18.667 9.333c0-0.9-0.179-1.763-0.505-2.549-0.339-0.817-0.833-1.551-1.447-2.164s-1.348-1.109-2.164-1.447c-0.788-0.328-1.651-0.507-2.551-0.507s-1.763 0.179-2.549 0.505c-0.817 0.339-1.551 0.833-2.165 1.447s-1.108 1.348-1.447 2.165c-0.327 0.787-0.505 1.649-0.505 2.549s0.179 1.763 0.505 2.549c0.339 0.817 0.833 1.551 1.447 2.164s1.348 1.109 2.164 1.447c0.788 0.328 1.651 0.507 2.551 0.507s1.763-0.179 2.549-0.505c0.817-0.339 1.551-0.833 2.164-1.447s1.109-1.348 1.447-2.164c0.328-0.788 0.507-1.651 0.507-2.551zM16 9.333c0 0.544-0.108 1.060-0.303 1.529-0.203 0.488-0.5 0.929-0.869 1.299s-0.811 0.667-1.299 0.869c-0.469 0.195-0.985 0.303-1.529 0.303s-1.060-0.108-1.529-0.303c-0.488-0.203-0.929-0.499-1.299-0.869s-0.667-0.811-0.869-1.299c-0.195-0.469-0.303-0.985-0.303-1.529s0.108-1.060 0.303-1.529c0.203-0.488 0.5-0.929 0.869-1.299s0.811-0.667 1.299-0.869c0.469-0.195 0.985-0.303 1.529-0.303s1.060 0.108 1.529 0.303c0.488 0.203 0.929 0.5 1.299 0.869s0.667 0.811 0.869 1.299c0.195 0.469 0.303 0.985 0.303 1.529zM32 28v-2.667c0-0.815-0.148-1.597-0.419-2.323-0.28-0.749-0.689-1.433-1.203-2.025-0.869-1.004-2.037-1.748-3.372-2.101-0.712-0.188-1.441 0.236-1.629 0.948s0.236 1.441 0.948 1.629c0.809 0.215 1.515 0.664 2.037 1.269 0.309 0.356 0.553 0.767 0.72 1.212 0.161 0.432 0.251 0.9 0.251 1.391v2.667c0 0.736 0.597 1.333 1.333 1.333s1.333-0.597 1.333-1.333zM21.003 5.465c0.527 0.135 1 0.368 1.407 0.672 0.423 0.317 0.776 0.715 1.043 1.164s0.445 0.951 0.52 1.475c0.072 0.503 0.048 1.029-0.087 1.556-0.116 0.453-0.304 0.865-0.547 1.229-0.252 0.376-0.565 0.705-0.927 0.975-0.419 0.313-0.9 0.547-1.417 0.681-0.712 0.187-1.139 0.916-0.951 1.628s0.916 1.139 1.628 0.951c0.849-0.223 1.643-0.607 2.337-1.125 0.597-0.447 1.123-0.995 1.545-1.627 0.409-0.612 0.723-1.301 0.915-2.051 0.224-0.872 0.264-1.752 0.143-2.596-0.125-0.875-0.423-1.709-0.865-2.456s-1.031-1.408-1.737-1.939c-0.681-0.511-1.472-0.899-2.345-1.123-0.713-0.183-1.44 0.248-1.623 0.961s0.248 1.44 0.961 1.623z"/>
    </symbol>
    <symbol id="mail" viewBox="0 0 32 32">
      <title>
        mail
      </title>
      <path d="M4 10.561l11.236 7.865c0.453 0.313 1.060 0.328 1.529 0l11.235-7.865v13.439c0 0.179-0.036 0.348-0.1 0.503-0.068 0.163-0.168 0.312-0.293 0.437s-0.275 0.225-0.437 0.293c-0.155 0.064-0.324 0.1-0.503 0.1h-21.333c-0.179 0-0.348-0.036-0.503-0.1-0.163-0.068-0.312-0.168-0.437-0.293s-0.225-0.275-0.293-0.437c-0.064-0.155-0.1-0.324-0.1-0.503zM1.333 8.016v15.984c0 0.537 0.108 1.053 0.303 1.524 0.204 0.492 0.503 0.933 0.871 1.303s0.811 0.668 1.303 0.871c0.471 0.195 0.987 0.303 1.524 0.303h21.333c0.537 0 1.053-0.108 1.524-0.303 0.492-0.204 0.933-0.503 1.303-0.871s0.668-0.811 0.871-1.303c0.195-0.471 0.303-0.987 0.303-1.524v-16c0-0.008 0-0.016 0-0.023-0.003-0.529-0.111-1.036-0.303-1.5-0.204-0.492-0.503-0.933-0.871-1.303s-0.811-0.668-1.303-0.871c-0.471-0.196-0.987-0.304-1.524-0.304h-21.333c-0.537 0-1.053 0.108-1.524 0.303-0.492 0.204-0.933 0.503-1.303 0.871s-0.667 0.811-0.871 1.303c-0.192 0.464-0.3 0.972-0.303 1.501 0 0.007 0 0.015 0 0.023zM27.859 7.405l-11.859 8.3-11.859-8.3c0.064-0.127 0.149-0.244 0.251-0.345 0.127-0.127 0.275-0.227 0.439-0.293 0.155-0.064 0.324-0.1 0.503-0.1h21.333c0.179 0 0.348 0.036 0.503 0.1 0.163 0.068 0.312 0.168 0.437 0.293 0.101 0.101 0.187 0.219 0.251 0.345z"/>
    </symbol>
    <symbol id="award" viewBox="0 0 32 32">
      <title>
        award
      </title>
      <path d="M19.981 20.565l1 7.536-4.295-2.577c-0.415-0.245-0.937-0.261-1.372 0l-4.295 2.577 1.001-7.535c1.231 0.495 2.575 0.767 3.979 0.767 1.405 0 2.749-0.272 3.981-0.768zM20.441 17.321c-0.077 0.040-0.149 0.087-0.216 0.14-0.369 0.231-0.76 0.432-1.167 0.6-0.94 0.389-1.972 0.605-3.059 0.605s-2.119-0.216-3.059-0.605c-0.977-0.405-1.859-0.999-2.597-1.737s-1.333-1.62-1.737-2.597c-0.391-0.941-0.607-1.973-0.607-3.060s0.216-2.119 0.605-3.059c0.405-0.977 0.999-1.859 1.737-2.597s1.62-1.333 2.597-1.737c0.941-0.391 1.973-0.607 3.060-0.607s2.119 0.216 3.059 0.605c0.977 0.405 1.859 0.999 2.597 1.737s1.333 1.62 1.737 2.597c0.391 0.941 0.607 1.973 0.607 3.060s-0.216 2.119-0.605 3.059c-0.405 0.977-0.999 1.859-1.737 2.597-0.371 0.371-0.777 0.705-1.215 0.997zM9.52 19.14l-1.508 11.351c-0.097 0.729 0.416 1.4 1.147 1.497 0.312 0.041 0.615-0.029 0.861-0.179l5.98-3.588 5.981 3.588c0.632 0.379 1.451 0.175 1.829-0.457 0.163-0.271 0.217-0.575 0.179-0.861l-1.507-11.353c0.373-0.287 0.728-0.597 1.060-0.929 0.983-0.983 1.775-2.157 2.316-3.463 0.521-1.257 0.808-2.636 0.808-4.079s-0.287-2.821-0.808-4.080c-0.541-1.307-1.333-2.48-2.316-3.463s-2.157-1.775-3.463-2.316c-1.259-0.521-2.637-0.808-4.080-0.808s-2.821 0.287-4.080 0.808c-1.307 0.541-2.48 1.333-3.463 2.316s-1.775 2.157-2.316 3.463c-0.521 1.259-0.808 2.637-0.808 4.080s0.287 2.821 0.808 4.080c0.541 1.307 1.333 2.48 2.316 3.463 0.333 0.333 0.688 0.644 1.061 0.931z"/>
    </symbol>
    <symbol id="bell" viewBox="0 0 32 32">
      <title>
        bell
      </title>
      <path d="M22.667 10.667c0 2.525 0.281 4.611 0.711 6.321 0.384 1.531 0.885 2.757 1.403 3.725 0.117 0.22 0.236 0.427 0.355 0.62h-18.269c0.119-0.193 0.236-0.4 0.355-0.62 0.517-0.968 1.019-2.193 1.403-3.725 0.429-1.711 0.711-3.796 0.711-6.321 0-0.905 0.18-1.765 0.504-2.549 0.337-0.815 0.833-1.549 1.448-2.165s1.351-1.111 2.165-1.448c0.784-0.324 1.644-0.504 2.549-0.504s1.765 0.18 2.549 0.504c0.815 0.337 1.549 0.832 2.165 1.448s1.111 1.351 1.448 2.165c0.324 0.784 0.504 1.644 0.504 2.549zM25.333 10.667c0-1.261-0.251-2.468-0.707-3.569-0.473-1.143-1.167-2.171-2.027-3.031s-1.887-1.553-3.031-2.027c-1.101-0.456-2.308-0.707-3.569-0.707s-2.468 0.251-3.569 0.707c-1.144 0.475-2.171 1.168-3.031 2.027s-1.552 1.887-2.027 3.031c-0.456 1.101-0.707 2.308-0.707 3.569 0 2.327-0.259 4.193-0.631 5.673-0.332 1.324-0.755 2.344-1.167 3.115-0.419 0.781-0.829 1.312-1.132 1.645-0.28 0.309-0.471 0.452-0.492 0.467-0.6 0.412-0.76 1.231-0.355 1.839 0.256 0.384 0.675 0.592 1.109 0.595h24c0.736 0 1.333-0.597 1.333-1.333 0-0.461-0.233-0.867-0.593-1.109 0.012 0.008-0.183-0.132-0.477-0.457-0.303-0.333-0.713-0.864-1.132-1.645-0.412-0.771-0.835-1.791-1.167-3.115-0.372-1.48-0.631-3.347-0.631-5.673zM17.153 27.331c-0.092 0.159-0.209 0.288-0.343 0.391-0.14 0.107-0.299 0.184-0.468 0.229s-0.347 0.057-0.52 0.033c-0.167-0.023-0.333-0.077-0.491-0.169-0.216-0.125-0.377-0.296-0.479-0.476-0.365-0.64-1.179-0.863-1.819-0.497s-0.863 1.179-0.497 1.819c0.333 0.585 0.831 1.097 1.457 1.461 0.467 0.271 0.968 0.437 1.476 0.505 0.527 0.071 1.056 0.035 1.559-0.1s0.98-0.365 1.403-0.688c0.407-0.311 0.76-0.705 1.031-1.171 0.369-0.637 0.152-1.453-0.484-1.823s-1.453-0.152-1.823 0.484z"/>
    </symbol>
    <!-- LNR  -->
    <symbol id="lnr-users" viewBox="0 0 1024 1024"><title>users</title><path class="path1" d="M947.2 921.6h-563.2c-42.347 0-76.8-34.453-76.8-76.8 0-2.461 0.538-60.952 47.331-118.544 26.883-33.088 63.541-59.31 108.952-77.941 54.856-22.504 122.858-33.915 202.117-33.915s147.261 11.411 202.117 33.915c45.411 18.63 82.067 44.853 108.952 77.941 46.794 57.592 47.331 116.083 47.331 118.544 0 42.347-34.453 76.8-76.8 76.8zM358.4 844.931c0.072 14.056 11.528 25.469 25.6 25.469h563.2c14.072 0 25.528-11.413 25.6-25.469-0.048-1.786-1.656-45.802-37.851-88.786-49.88-59.235-143.019-90.546-269.349-90.546s-219.469 31.31-269.349 90.546c-36.194 42.984-37.803 87-37.851 88.786z"></path><path class="path2" d="M665.6 563.2c-112.926 0-204.8-91.874-204.8-204.8 0-112.928 91.874-204.8 204.8-204.8s204.8 91.872 204.8 204.8c0 112.926-91.874 204.8-204.8 204.8zM665.6 204.8c-84.696 0-153.6 68.904-153.6 153.6s68.904 153.6 153.6 153.6 153.6-68.904 153.6-153.6-68.904-153.6-153.6-153.6z"></path><path class="path3" d="M230.4 921.6h-153.6c-42.347 0-76.8-34.451-76.8-76.8 0-1.915 0.386-47.446 33.92-92.16 19.373-25.832 45.778-46.299 78.483-60.834 39.126-17.389 87.438-26.206 143.597-26.206 9.16 0 18.232 0.235 26.962 0.701 14.118 0.754 24.954 12.81 24.2 26.928-0.752 14.117-12.781 24.96-26.928 24.2-7.826-0.418-15.979-0.629-24.234-0.629-199.366 0-204.666 121.826-204.8 128.131 0.072 14.054 11.528 25.469 25.6 25.469h153.6c14.138 0 25.6 11.461 25.6 25.6s-11.462 25.6-25.6 25.6z"></path><path class="path4" d="M256 614.4c-84.696 0-153.6-68.904-153.6-153.6s68.904-153.6 153.6-153.6 153.6 68.904 153.6 153.6-68.904 153.6-153.6 153.6zM256 358.4c-56.464 0-102.4 45.936-102.4 102.4s45.936 102.4 102.4 102.4 102.4-45.936 102.4-102.4c0-56.464-45.936-102.4-102.4-102.4z"></path></symbol>
    <symbol id="lnr-briefcase" viewBox="0 0 1024 1024">
      <title>
        briefcase
      </title>
      <path class="path1" d="M947.2 256h-230.4v-76.8c0-42.347-34.453-76.8-76.8-76.8h-256c-42.347 0-76.8 34.453-76.8 76.8v76.8h-230.4c-42.347 0-76.8 34.453-76.8 76.8v563.2c0 42.349 34.453 76.8 76.8 76.8h870.4c42.349 0 76.8-34.451 76.8-76.8v-563.2c0-42.347-34.451-76.8-76.8-76.8zM358.4 179.2c0-14.115 11.485-25.6 25.6-25.6h256c14.115 0 25.6 11.485 25.6 25.6v76.8h-307.2v-76.8zM76.8 307.2h870.4c14.115 0 25.6 11.485 25.6 25.6v384h-102.4v-25.6c0-14.139-11.461-25.6-25.6-25.6h-102.4c-14.139 0-25.6 11.461-25.6 25.6v25.6h-409.6v-25.6c0-14.139-11.462-25.6-25.6-25.6h-102.4c-14.138 0-25.6 11.461-25.6 25.6v25.6h-102.4v-384c0-14.115 11.485-25.6 25.6-25.6zM819.2 716.8v51.2h-51.2v-51.2h51.2zM256 716.8v51.2h-51.2v-51.2h51.2zM947.2 921.6h-870.4c-14.115 0-25.6-11.485-25.6-25.6v-128h102.4v25.6c0 14.139 11.462 25.6 25.6 25.6h102.4c14.138 0 25.6-11.461 25.6-25.6v-25.6h409.6v25.6c0 14.139 11.461 25.6 25.6 25.6h102.4c14.139 0 25.6-11.461 25.6-25.6v-25.6h102.4v128c0 14.115-11.485 25.6-25.6 25.6z"/>
    </symbol>
    <symbol id="lnr-laptop-phone" viewBox="0 0 1024 1024">
      <title>
        laptop-phone
      </title>
      <path class="path1" d="M588.8 716.8h-409.6c-42.347 0-76.8-34.451-76.8-76.8v-409.6c0-42.347 34.453-76.8 76.8-76.8h665.6c42.349 0 76.8 34.453 76.8 76.8v51.2c0 14.138-11.461 25.6-25.6 25.6s-25.6-11.462-25.6-25.6v-51.2c0-14.115-11.485-25.6-25.6-25.6h-665.6c-14.115 0-25.6 11.485-25.6 25.6v409.6c0 14.115 11.485 25.6 25.6 25.6h409.6c14.139 0 25.6 11.461 25.6 25.6s-11.461 25.6-25.6 25.6z"/>
      <path class="path2" d="M588.8 921.6h-512c-42.347 0-76.8-34.453-76.8-76.8v-51.2c0-14.139 11.462-25.6 25.6-25.6h563.2c14.139 0 25.6 11.461 25.6 25.6s-11.461 25.6-25.6 25.6h-537.6v25.6c0 14.115 11.485 25.6 25.6 25.6h512c14.139 0 25.6 11.461 25.6 25.6s-11.461 25.6-25.6 25.6z"/>
      <path class="path3" d="M947.2 921.6h-204.8c-42.347 0-76.8-34.453-76.8-76.8v-409.6c0-42.347 34.453-76.8 76.8-76.8h204.8c42.347 0 76.8 34.453 76.8 76.8v409.6c0 42.347-34.453 76.8-76.8 76.8zM742.4 409.6c-14.115 0-25.6 11.485-25.6 25.6v409.6c0 14.115 11.485 25.6 25.6 25.6h204.8c14.115 0 25.6-11.485 25.6-25.6v-409.6c0-14.115-11.485-25.6-25.6-25.6h-204.8z"/>
      <path class="path4" d="M844.8 819.2c-6.736 0-13.328-2.736-18.098-7.504-4.766-4.768-7.502-11.36-7.502-18.096s2.736-13.344 7.502-18.098c4.754-4.766 11.362-7.502 18.098-7.502s13.344 2.736 18.096 7.502c4.768 4.754 7.504 11.346 7.504 18.098 0 6.736-2.736 13.344-7.504 18.096-4.768 4.768-11.36 7.504-18.096 7.504z"/>
    </symbol>
    <symbol id="lnr-clock" viewBox="0 0 1024 1024">
      <title>
        clock
      </title>
      <path class="path1" d="M835.574 876.171c88.534-91.234 137.226-211.154 137.226-338.571 0-121.352-44.152-235.912-124.834-325.36l35.234-35.237 33.101 33.099c4.997 4.998 11.547 7.498 18.099 7.498s13.102-2.499 18.099-7.499c10-9.997 10-26.206 0-36.203l-102.4-102.4c-9.995-9.998-26.208-9.998-36.205 0s-9.998 26.206 0 36.203l33.102 33.099-35.237 35.235c-89.45-80.683-204.008-124.835-325.36-124.835s-235.91 44.152-325.36 124.835l-35.237-35.235 33.098-33.098c9.998-9.997 9.998-26.206 0-36.203s-26.206-9.998-36.203 0l-102.4 102.4c-9.998 9.997-9.998 26.206 0 36.203 5 4.998 11.55 7.498 18.102 7.498s13.102-2.499 18.101-7.499l33.099-33.098 35.237 35.237c-80.685 89.45-124.837 204.008-124.837 325.36 0 127.418 48.691 247.336 137.226 338.57l-104.128 104.125c-9.998 9.997-9.998 26.21 0 36.205 5 5.002 11.55 7.501 18.102 7.501s13.102-2.499 18.101-7.501l105.448-105.446c87.304 73.114 196.41 112.947 311.651 112.947s224.349-39.834 311.651-112.946l105.443 105.445c5 5 11.554 7.501 18.102 7.501s13.102-2.499 18.099-7.501c10-9.995 10-26.208 0-36.205l-104.122-104.123zM51.2 537.6c0-239.97 195.23-435.2 435.2-435.2s435.2 195.23 435.2 435.2c0 239.97-195.23 435.2-435.2 435.2s-435.2-195.23-435.2-435.2z"/>
      <path class="path2" d="M774.611 371.2c-7.069-12.245-22.728-16.435-34.966-9.37l-251.917 145.445-196.344-137.482c-11.582-8.11-27.547-5.294-35.654 6.286-8.11 11.582-5.294 27.546 6.286 35.654l209.702 146.834c0.042 0.030 0.085 0.053 0.126 0.082 0.448 0.309 0.906 0.603 1.37 0.883 0.106 0.064 0.21 0.13 0.315 0.192 0.458 0.264 0.923 0.512 1.394 0.75 0.102 0.051 0.203 0.11 0.307 0.163 0.518 0.25 1.046 0.485 1.579 0.699 0.328 0.133 0.659 0.246 0.99 0.366 0.219 0.075 0.435 0.16 0.656 0.232 0.36 0.117 0.722 0.222 1.085 0.322 0.2 0.056 0.4 0.109 0.6 0.163 0.366 0.091 0.733 0.174 1.101 0.251 0.213 0.042 0.426 0.083 0.64 0.12 0.355 0.064 0.71 0.125 1.067 0.171 0.258 0.035 0.515 0.059 0.774 0.090 0.315 0.034 0.629 0.070 0.944 0.091 0.466 0.034 0.933 0.045 1.4 0.053 0.104 0 0.208 0.011 0.314 0.011 0.005 0 0.011-0.002 0.016-0.002 0.010 0 0.021 0.002 0.030 0.002 0.957 0 1.917-0.062 2.875-0.171 0.045-0.003 0.091-0.006 0.134-0.013 0.93-0.109 1.854-0.28 2.776-0.496 0.086-0.021 0.173-0.035 0.259-0.059 0.867-0.213 1.728-0.472 2.579-0.779 0.146-0.050 0.29-0.104 0.434-0.163 0.795-0.302 1.581-0.637 2.358-1.029 0.184-0.094 0.365-0.197 0.549-0.294 0.269-0.144 0.542-0.278 0.81-0.434l266.043-153.6c12.24-7.069 16.435-22.725 9.366-34.97z"/>
    </symbol>
    <symbol id="lnr-code" viewBox="0 0 1024 1024">
      <title>
        code
      </title>
      <path class="path1" d="M256 768c-6.552 0-13.102-2.499-18.101-7.499l-204.8-204.8c-9.998-9.997-9.998-26.206 0-36.203l204.8-204.8c9.997-9.997 26.206-9.997 36.203 0 9.998 9.997 9.998 26.206 0 36.203l-186.699 186.699 186.698 186.699c9.998 9.997 9.998 26.206 0 36.203-4.998 4.998-11.549 7.498-18.101 7.498z"/>
      <path class="path2" d="M768 768c-6.552 0-13.102-2.499-18.101-7.499-9.998-9.997-9.998-26.206 0-36.203l186.698-186.698-186.698-186.699c-9.998-9.997-9.998-26.206 0-36.203 9.997-9.997 26.206-9.997 36.203 0l204.8 204.8c9.998 9.997 9.998 26.206 0 36.203l-204.8 204.8c-5 5-11.55 7.499-18.102 7.499z"/>
      <path class="path3" d="M383.976 768.003c-4.634 0-9.325-1.258-13.544-3.894-11.989-7.494-15.634-23.288-8.141-35.278l256-409.6c7.493-11.984 23.283-15.634 35.278-8.141 11.989 7.494 15.634 23.288 8.141 35.278l-256 409.6c-4.858 7.77-13.202 12.035-21.734 12.035z"/>
    </symbol>
    <symbol id="lnr-store" viewBox="0 0 1024 1024">
      <title>
        store
      </title>
      <path class="path1" d="M921.6 486.4v-51.2c0-3.974-0.925-7.894-2.702-11.448l-102.4-204.8c-4.336-8.674-13.2-14.152-22.898-14.152h-614.4c-9.698 0-18.562 5.478-22.898 14.152l-102.4 204.8c-1.778 3.554-2.702 7.474-2.702 11.448v51.2c0 41.786 20.131 78.955 51.2 102.33v332.87h-25.6c-14.138 0-25.6 11.461-25.6 25.6s11.462 25.6 25.6 25.6h819.2c14.139 0 25.6-11.461 25.6-25.6s-11.461-25.6-25.6-25.6h-25.598v-332.87c31.067-23.376 51.198-60.544 51.198-102.33zM588.8 563.2c-42.347 0-76.8-34.453-76.8-76.8v-25.6h153.6v25.6c0 42.347-34.453 76.8-76.8 76.8zM102.4 486.4v-25.6h153.6v25.6c0 42.347-34.453 76.8-76.8 76.8s-76.8-34.453-76.8-76.8zM460.8 256v153.6h-146.413l38.4-153.6h108.013zM620.013 256l38.4 153.6h-146.413v-153.6h108.013zM307.2 460.8h153.6v25.6c0 42.347-34.453 76.8-76.8 76.8s-76.8-34.453-76.8-76.8v-25.6zM716.8 460.8h153.6v25.6c0 42.347-34.453 76.8-76.8 76.8s-76.8-34.453-76.8-76.8v-25.6zM854.578 409.6h-143.39l-38.4-153.6h104.99l76.8 153.6zM195.022 256h104.99l-38.4 153.6h-143.39l76.8-153.6zM153.6 611.826c8.274 1.686 16.835 2.574 25.6 2.574 41.827 0 79.029-20.168 102.4-51.29 23.371 31.122 60.573 51.29 102.4 51.29s79.029-20.168 102.4-51.29c18.474 24.598 45.589 42.354 76.8 48.714v309.776h-409.6v-309.774zM819.202 921.6h-204.802v-309.774c31.211-6.362 58.325-24.115 76.8-48.714 23.371 31.12 60.573 51.288 102.4 51.288 8.766 0 17.326-0.89 25.602-2.576v309.776z"/>
      <path class="path2" d="M716.8 742.4c0 14.138-11.462 25.6-25.6 25.6s-25.6-11.462-25.6-25.6c0-14.138 11.462-25.6 25.6-25.6s25.6 11.462 25.6 25.6z"/>
      <path class="path3" d="M230.4 768c-6.552 0-13.102-2.499-18.102-7.499-9.997-9.997-9.997-26.206 0-36.203l51.2-51.2c9.998-9.997 26.206-9.997 36.205 0 9.997 9.997 9.997 26.206 0 36.203l-51.2 51.2c-5 5-11.55 7.499-18.102 7.499z"/>
      <path class="path4" d="M281.6 870.4c-6.552 0-13.102-2.499-18.101-7.499-9.998-9.997-9.998-26.206 0-36.203l153.6-153.6c9.997-9.997 26.206-9.997 36.203 0 9.998 9.997 9.998 26.206 0 36.203l-153.6 153.6c-5 5-11.55 7.499-18.102 7.499z"/>
      <path class="path5" d="M435.2 870.4c-6.552 0-13.102-2.499-18.102-7.499-9.997-9.997-9.997-26.206 0-36.203l51.2-51.2c9.998-9.997 26.206-9.997 36.205 0s9.998 26.206 0 36.203l-51.2 51.2c-5 5-11.55 7.499-18.102 7.499z"/>
    </symbol>
    <symbol id="lnr-rocket" viewBox="0 0 1024 1024"><title>rocket</title><path class="path1" d="M691.2 460.8c-70.579 0-128-57.421-128-128s57.421-128 128-128 128 57.421 128 128-57.421 128-128 128zM691.2 256c-42.347 0-76.8 34.453-76.8 76.8s34.453 76.8 76.8 76.8 76.8-34.453 76.8-76.8-34.453-76.8-76.8-76.8z"></path><path class="path2" d="M25.603 1024c-6.675 0-13.219-2.613-18.106-7.499-7.034-7.034-9.355-17.502-5.957-26.85 78.781-216.648 161.613-326.499 246.195-326.499 27.883 0 53.979 11.96 77.566 35.546 37.283 37.283 38.611 74.394 33.162 98.96-17.125 77.187-126.171 152.822-324.115 224.802-2.853 1.038-5.813 1.541-8.746 1.541zM247.736 714.354c-25.354 0-55.19 22.214-86.282 64.237-30.578 41.33-61.274 100.205-91.525 175.477 68.352-27.478 123.302-55.379 163.806-83.205 54.648-37.542 70.808-66.562 74.742-84.294 3.944-17.779-2.395-34.682-19.382-51.667-13.826-13.826-27.354-20.547-41.36-20.547z"></path><path class="path3" d="M998.4 0c-132.848 0-251.256 22.534-351.939 66.981-82.997 36.638-154.075 88.075-211.258 152.882-10.674 12.098-20.552 24.334-29.691 36.586-44.142 2.942-89.275 20.47-134.362 52.221-38.13 26.851-76.459 64.014-113.923 110.458-62.965 78.054-101.706 154.987-103.325 158.226-5.605 11.211-2.25 24.814 7.904 32.166 4.501 3.258 9.758 4.856 14.992 4.856 6.573 0 13.109-2.52 18.064-7.434 0.243-0.24 24.714-24.299 66.469-47.926 34.41-19.474 87.461-42.336 151.613-46.384 16.219 41.541 62.662 91.181 84.954 113.47 22.291 22.291 71.931 68.734 113.472 84.955-4.046 64.152-26.91 117.202-46.382 151.611-23.629 41.757-47.686 66.227-47.89 66.432-8.878 8.878-10.006 22.885-2.666 33.070 4.952 6.87 12.77 10.634 20.782 10.634 3.867 0 7.779-0.877 11.434-2.704 3.237-1.619 80.17-40.36 158.226-103.325 46.443-37.464 83.606-75.794 110.458-113.922 31.75-45.088 49.278-90.221 52.221-134.363 12.251-9.139 24.49-19.019 36.586-29.693 64.806-57.181 116.243-128.259 152.883-211.258 44.443-100.682 66.979-219.091 66.979-351.939v-25.6h-25.6zM159.102 502.187c48.797-70.8 123.384-158.595 207.446-186.232-33.222 58.203-50.422 111.691-56.611 145.555-59.323 3.626-110.467 20.89-150.835 40.677zM521.87 864.781c19.762-40.35 36.995-91.453 40.619-150.718 33.859-6.187 87.336-23.384 145.528-56.597-27.658 83.92-115.381 158.49-186.147 207.315zM770.262 550.405c-106.48 93.952-216.794 115.195-232.662 115.195-0.102 0-10.581-0.23-38.867-20.136-19.728-13.883-42.682-33.618-64.63-55.566-21.95-21.95-41.683-44.902-55.566-64.632-19.906-28.285-20.136-38.763-20.136-38.866 0-15.869 21.243-126.182 115.197-232.662 112.416-127.406 284.533-197.059 498.894-202.227-5.17 214.358-74.822 386.477-202.229 498.894z"></path></symbol>
    <symbol id="lnr-apartment" viewBox="0 0 1024 1024">
      <title>
        apartment
      </title>
      <path class="path1" d="M716.8 307.2h51.2v51.2h-51.2v-51.2z"/>
      <path class="path2" d="M716.8 409.6h51.2v51.2h-51.2v-51.2z"/>
      <path class="path3" d="M716.8 512h51.2v51.2h-51.2v-51.2z"/>
      <path class="path4" d="M716.8 614.4h51.2v51.2h-51.2v-51.2z"/>
      <path class="path5" d="M716.8 819.2h51.2v51.2h-51.2v-51.2z"/>
      <path class="path6" d="M716.8 716.8h51.2v51.2h-51.2v-51.2z"/>
      <path class="path7" d="M307.2 307.2h51.2v51.2h-51.2v-51.2z"/>
      <path class="path8" d="M307.2 409.6h51.2v51.2h-51.2v-51.2z"/>
      <path class="path9" d="M307.2 512h51.2v51.2h-51.2v-51.2z"/>
      <path class="path10" d="M307.2 614.4h51.2v51.2h-51.2v-51.2z"/>
      <path class="path11" d="M307.2 819.2h51.2v51.2h-51.2v-51.2z"/>
      <path class="path12" d="M307.2 716.8h51.2v51.2h-51.2v-51.2z"/>
      <path class="path13" d="M204.8 307.2h51.2v51.2h-51.2v-51.2z"/>
      <path class="path14" d="M204.8 409.6h51.2v51.2h-51.2v-51.2z"/>
      <path class="path15" d="M204.8 512h51.2v51.2h-51.2v-51.2z"/>
      <path class="path16" d="M204.8 614.4h51.2v51.2h-51.2v-51.2z"/>
      <path class="path17" d="M204.8 819.2h51.2v51.2h-51.2v-51.2z"/>
      <path class="path18" d="M204.8 716.8h51.2v51.2h-51.2v-51.2z"/>
      <path class="path19" d="M409.6 307.2h51.2v51.2h-51.2v-51.2z"/>
      <path class="path20" d="M409.6 409.6h51.2v51.2h-51.2v-51.2z"/>
      <path class="path21" d="M409.6 512h51.2v51.2h-51.2v-51.2z"/>
      <path class="path22" d="M409.6 614.4h51.2v51.2h-51.2v-51.2z"/>
      <path class="path23" d="M409.6 819.2h51.2v51.2h-51.2v-51.2z"/>
      <path class="path24" d="M409.6 716.8h51.2v51.2h-51.2v-51.2z"/>
      <path class="path25" d="M947.2 972.8h-25.6v-691.2c0-39.058-29.024-79.326-66.077-91.677l-241.123-80.374v-83.949c0-8.093-3.827-15.709-10.318-20.539-6.493-4.829-14.888-6.306-22.637-3.981l-462.96 138.886c-37.73 11.32-67.285 51.043-67.285 90.434v742.4h-25.6c-14.138 0-25.6 11.461-25.6 25.6s11.462 25.6 25.6 25.6h921.6c14.139 0 25.6-11.461 25.6-25.6s-11.461-25.6-25.6-25.6zM839.333 238.496c16.259 5.419 31.067 25.965 31.067 43.104v691.2h-256v-809.282l224.933 74.978zM102.4 230.4c0-16.827 14.678-36.557 30.797-41.392l430.003-129.002v912.794h-460.8v-742.4z"/>
    </symbol>
    <symbol id="lnr-enter" viewBox="0 0 1024 1024"><title>enter</title><path class="path1" d="M896 102.4h-460.8c-42.347 0-76.8 34.453-76.8 76.8v153.6c0 14.138 11.462 25.6 25.6 25.6s25.6-11.462 25.6-25.6v-153.6c0-14.115 11.485-25.6 25.6-25.6h387.278l-196.702 84.301c-35.088 15.038-62.576 56.723-62.576 94.899v486.4h-128c-14.115 0-25.6-11.485-25.6-25.6v-153.6c0-14.139-11.462-25.6-25.6-25.6s-25.6 11.461-25.6 25.6v153.6c0 42.347 34.453 76.8 76.8 76.8h128v76.8c0 22.181 9.234 40.99 25.331 51.606 8.886 5.861 19.243 8.814 30.171 8.814 8.867 0 18.109-1.946 27.242-5.859l264.277-113.261c35.091-15.038 62.579-56.723 62.579-94.901v-614.4c0-42.347-34.451-76.8-76.8-76.8zM921.6 793.6c0 17.963-15.035 40.765-31.546 47.838l-264.277 113.261c-4.912 2.107-8.163 1.955-9.062 1.363-0.894-0.59-2.315-3.518-2.315-8.862v-614.4c0-17.962 15.035-40.763 31.546-47.838l273.043-117.019c1.672 3.4 2.611 7.221 2.611 11.258v614.4z"></path><path class="path2" d="M427.701 468.299l-153.6-153.6c-9.997-9.998-26.206-9.998-36.203 0s-9.998 26.206 0 36.203l109.899 109.898h-322.197c-14.138 0-25.6 11.462-25.6 25.6s11.462 25.6 25.6 25.6h322.197l-109.898 109.899c-9.998 9.997-9.998 26.206 0 36.203 4.998 4.998 11.549 7.498 18.101 7.498s13.102-2.499 18.101-7.499l153.6-153.6c9.998-9.997 9.998-26.205 0-36.202z"></path></symbol>
    <symbol id="lnr-tag" viewBox="0 0 1024 1024"><title>tag</title><path class="path1" d="M384 977.13c-20.554 0-39.84-7.966-54.306-22.43l-260.394-260.395c-14.466-14.464-22.432-33.75-22.432-54.304s7.966-39.84 22.434-54.306l439.594-439.592c24.91-24.914 70.269-43.702 105.504-43.702h230.4c42.349 0 76.8 34.453 76.8 76.8v230.4c0 35.232-18.787 80.59-43.699 105.504l-439.595 439.595c-14.466 14.466-33.752 22.43-54.306 22.43zM614.4 153.6c-21.246 0-54.278 13.682-69.299 28.704l-439.595 439.595c-4.795 4.795-7.435 11.224-7.435 18.101s2.64 13.306 7.435 18.099l260.394 260.397c4.795 4.794 11.224 7.434 18.101 7.434s13.307-2.64 18.102-7.435l439.594-439.592c15.021-15.024 28.704-48.058 28.704-69.302v-230.4c0-14.115-11.485-25.6-25.6-25.6h-230.4z"></path><path class="path2" d="M742.4 358.4c-42.349 0-76.8-34.453-76.8-76.8s34.451-76.8 76.8-76.8 76.8 34.453 76.8 76.8-34.451 76.8-76.8 76.8zM742.4 256c-14.115 0-25.6 11.485-25.6 25.6s11.485 25.6 25.6 25.6 25.6-11.485 25.6-25.6-11.485-25.6-25.6-25.6z"></path></symbol>
  </defs>
</svg>
